<?xml version="1.0" standalone="no"?>
<!DOCTYPE svg PUBLIC "-//W3C//DTD SVG 20010904//EN"
 "http://www.w3.org/TR/2001/REC-SVG-20010904/DTD/svg10.dtd">
<svg version="1.0" xmlns="http://www.w3.org/2000/svg"
 width="1563.000000pt" height="1563.000000pt" viewBox="0 0 1563.000000 1563.000000"
 preserveAspectRatio="xMidYMid meet">

<g transform="translate(0.000000,1563.000000) scale(0.100000,-0.100000)"
fill="#000000" stroke="none">
<path d="M7700 13108 c-25 -5 -52 -18 -62 -29 -9 -10 -25 -19 -35 -19 -19 0
-83 -50 -83 -64 0 -11 44 4 56 20 7 8 22 17 34 19 12 2 32 11 44 18 11 8 33
17 49 21 15 3 27 11 27 16 0 6 23 10 50 10 32 0 50 -4 50 -12 0 -9 3 -9 12 0
17 17 77 15 84 -3 4 -8 14 -15 23 -15 14 0 14 -2 1 -10 -13 -8 -12 -10 3 -10
10 0 15 -4 12 -10 -3 -5 -1 -10 4 -10 6 0 11 10 11 22 l0 21 18 -21 c9 -11 23
-29 31 -40 8 -11 34 -28 58 -38 28 -12 43 -24 43 -36 0 -10 5 -15 13 -13 6 3
18 -7 24 -22 7 -16 26 -34 43 -41 16 -8 29 -17 29 -20 -4 -24 3 -33 19 -28 12
4 26 -1 37 -14 10 -11 24 -20 32 -20 7 0 13 -5 13 -10 0 -7 6 -7 19 0 27 14
34 13 27 -6 -4 -12 0 -15 17 -12 12 2 21 9 19 16 -1 6 5 12 13 12 8 0 15 -6
15 -14 0 -16 27 -29 41 -20 5 3 15 -1 23 -9 12 -12 12 -18 -1 -46 -9 -18 -28
-38 -44 -46 -15 -8 -29 -20 -31 -26 -3 -8 -37 -12 -100 -13 -53 -1 -100 -4
-104 -8 -12 -12 -82 -9 -90 3 -4 7 -24 9 -58 5 -28 -4 -59 -6 -68 -5 -19 1
-317 2 -345 0 -10 0 -40 2 -68 5 -27 3 -70 1 -95 -5 -27 -6 -49 -6 -55 -1 -6
5 -65 11 -131 12 -110 3 -119 5 -122 23 -2 11 -21 41 -43 67 -39 47 -49 65
-27 52 8 -5 9 -2 5 9 -9 23 5 28 77 33 55 4 64 2 72 -15 8 -18 11 -18 28 -5
19 14 19 14 -5 15 -15 0 -19 3 -9 6 8 4 21 12 29 20 7 8 20 12 28 9 14 -6 56
32 80 70 11 18 11 17 6 -3 -3 -13 -1 -23 5 -23 15 0 30 32 24 49 -2 8 0 11 5
8 5 -3 15 -2 23 4 10 6 11 9 3 9 -7 0 -13 5 -13 11 0 6 9 9 20 6 24 -6 28 21
4 30 -11 4 -35 -13 -76 -55 -33 -34 -70 -64 -82 -68 -11 -4 -24 -11 -27 -16
-3 -5 -48 -13 -100 -19 -128 -14 -135 -17 -137 -71 -3 -44 3 -56 73 -141 8 -9
18 -43 21 -75 4 -31 13 -72 22 -91 14 -31 14 -38 -4 -90 -10 -31 -29 -64 -41
-74 -13 -10 -23 -23 -23 -30 0 -30 -47 -78 -87 -88 -29 -8 -51 -23 -72 -49
-34 -42 -39 -74 -16 -104 24 -32 19 -73 -12 -93 -16 -10 -47 -37 -71 -60 -43
-42 -65 -57 -132 -89 -79 -37 -153 11 -165 109 -7 52 -5 59 34 125 55 94 131
283 138 343 5 42 3 49 -11 49 -15 0 -61 -21 -116 -52 -8 -5 -29 -15 -46 -23
-17 -7 -55 -30 -84 -49 -30 -20 -60 -36 -67 -36 -6 0 -18 -8 -25 -17 -7 -10
-22 -19 -33 -21 -11 -2 -25 -10 -32 -19 -10 -13 -15 -14 -27 -4 -12 10 -14 41
-13 158 l2 145 -30 26 c-37 32 -38 52 -3 74 15 10 30 29 34 44 10 39 -3 122
-21 141 -31 30 -37 64 -18 87 31 36 43 64 43 98 0 67 -78 148 -141 148 -40 0
-79 -24 -79 -48 1 -15 2 -15 13 -1 13 17 144 28 133 11 -3 -5 4 -26 14 -48 33
-65 21 -146 -24 -158 -55 -15 -94 -6 -130 28 -31 29 -36 40 -36 79 0 25 5 49
10 52 17 10 12 45 -5 39 -8 -4 -15 -13 -15 -20 0 -8 -8 -26 -17 -40 -14 -23
-15 -32 -4 -73 7 -25 21 -56 33 -68 20 -21 18 -60 -4 -74 -6 -4 -8 -14 -6 -23
3 -16 5 -15 25 3 12 12 31 21 43 21 11 0 19 3 18 8 -3 11 13 52 20 52 4 0 26
-18 49 -39 69 -65 85 -172 34 -227 -34 -36 -35 -67 -2 -112 19 -27 22 -47 25
-169 2 -76 4 -148 5 -160 1 -26 26 -31 35 -8 3 8 12 15 20 15 9 0 20 9 26 20
6 11 17 20 25 20 18 0 67 25 112 58 17 12 36 22 42 22 6 0 11 4 11 9 0 7 28
19 60 25 12 3 70 41 70 46 0 4 6 7 14 7 20 0 13 -73 -9 -97 -9 -10 -15 -21
-14 -26 4 -16 -12 -68 -32 -107 -10 -22 -19 -45 -19 -52 0 -6 -15 -32 -33 -56
-30 -40 -32 -49 -30 -104 6 -104 9 -120 26 -123 10 -2 17 -7 17 -11 0 -5 14
-11 31 -15 17 -3 28 -10 24 -16 -8 -12 5 -13 25 0 9 5 19 5 27 -2 9 -7 28 -6
63 2 28 7 53 10 56 7 11 -11 -38 -45 -59 -41 -20 4 -20 4 -3 -4 17 -7 12 -14
-40 -50 -32 -23 -68 -51 -80 -62 -33 -34 -72 -50 -104 -43 -17 3 -36 0 -44 -6
-16 -13 -407 -22 -564 -13 -92 5 -94 6 -133 43 -71 68 -82 187 -23 233 15 11
38 31 50 44 12 12 26 22 33 22 6 0 11 5 11 10 0 6 7 10 15 10 8 0 15 5 15 10
0 6 8 10 18 10 23 1 65 37 60 52 -3 8 -11 5 -24 -8 -10 -10 -41 -30 -67 -44
-27 -14 -53 -33 -58 -42 -5 -10 -15 -18 -21 -18 -6 0 -18 -7 -27 -15 -9 -8
-27 -23 -39 -33 -45 -34 -42 -170 5 -239 14 -21 26 -49 25 -63 0 -14 -1 -44
-2 -67 -1 -43 16 -83 37 -83 19 0 33 -34 33 -77 0 -47 14 -63 55 -63 18 0 39
-8 47 -17 75 -86 92 -210 34 -233 -13 -5 -27 -24 -35 -48 -12 -34 -11 -42 4
-66 10 -14 23 -26 30 -26 12 0 35 -41 35 -65 0 -7 -7 -20 -15 -29 -13 -13 -11
-15 16 -21 21 -5 34 -3 39 5 6 9 9 9 15 1 3 -7 15 -9 25 -6 10 3 45 1 78 -4
33 -5 75 -6 96 -1 20 4 38 4 41 0 2 -4 37 -8 77 -8 81 -1 121 -11 110 -29 -5
-8 -81 -12 -252 -13 -135 -1 -251 -2 -258 -1 -8 1 -12 12 -10 28 4 36 -27 45
-35 11 -9 -36 1 -62 32 -79 48 -28 50 -119 3 -134 -11 -3 -24 -17 -31 -31 -14
-32 3 -74 36 -89 18 -7 23 -21 28 -70 4 -33 4 -365 1 -738 -5 -583 -8 -682
-21 -700 -9 -12 -18 -21 -20 -19 -14 7 -24 -1 -34 -28 -13 -40 1 -78 33 -86
19 -4 26 -14 30 -42 13 -77 5 -110 -33 -142 -53 -46 -53 -98 -1 -125 23 -12
30 -22 30 -45 0 -25 -4 -29 -32 -32 -32 -3 -32 -3 -11 -16 18 -10 318 -23 508
-22 6 0 88 1 184 3 l174 2 2 -170 3 -170 -39 44 -38 45 -41 -20 c-39 -18 -41
-21 -36 -54 8 -62 14 -89 21 -99 12 -20 61 -12 85 14 42 45 54 34 46 -42 -4
-38 -8 -99 -9 -138 -1 -50 -6 -69 -14 -68 -7 2 -13 -1 -13 -5 0 -12 -68 -14
-90 -2 -28 15 -25 38 10 68 36 32 36 39 8 94 -34 68 -37 70 -61 44 -75 -82
-82 -97 -58 -123 10 -10 26 -31 35 -46 23 -34 19 -35 -98 -39 -105 -4 -115 5
-62 58 20 20 36 41 36 46 0 14 -52 108 -59 108 -3 0 -26 -18 -50 -40 -51 -46
-50 -68 2 -134 l31 -39 -31 6 c-18 4 -53 0 -80 -8 -61 -19 -68 -19 -87 1 -21
21 -20 27 9 62 28 33 33 73 11 91 -8 7 -17 23 -20 36 -8 32 -21 31 -49 -2 -12
-14 -29 -34 -38 -43 -17 -18 -10 -64 19 -109 9 -14 12 -23 7 -19 -4 4 -14 3
-21 -3 -14 -11 -247 -21 -271 -12 -11 4 -13 34 -8 147 4 77 8 143 10 145 3 2
11 -2 19 -8 12 -10 17 -8 26 9 17 31 5 67 -24 74 -30 7 -32 17 -28 180 3 117
5 129 23 133 10 3 19 9 19 14 0 9 -51 1 -63 -10 -4 -4 -6 -167 -5 -362 l3
-354 90 -2 c50 -1 274 -5 499 -8 461 -6 449 -7 437 63 -4 20 -4 53 -1 72 3 20
3 69 -1 110 -3 40 -3 99 0 130 4 30 6 120 4 199 -3 142 -11 173 -40 164 -6 -2
-21 5 -32 16 -19 19 -19 37 -20 1023 0 551 3 1019 7 1038 l8 35 150 -2 c82 -2
156 -6 164 -10 18 -8 -55 -21 -125 -22 -75 -2 -79 -7 -77 -97 1 -42 7 -82 12
-89 8 -9 8 -15 0 -20 -6 -4 -10 -48 -10 -110 0 -62 4 -106 10 -110 8 -5 7 -12
-2 -22 -10 -12 -9 -17 3 -27 9 -6 22 -22 30 -36 13 -25 13 -25 20 20 4 25 8
119 9 210 0 120 4 170 14 183 12 16 59 17 802 12 434 -4 799 -8 810 -10 12 -3
24 -15 28 -27 8 -30 8 -637 0 -677 -8 -38 -16 -38 -96 -4 -62 27 -117 61 -233
148 -33 24 -91 66 -130 92 l-70 48 -112 0 c-78 0 -116 -4 -125 -13 -21 -21
-25 -138 -27 -927 -1 -412 -4 -888 -6 -1057 -3 -265 -2 -310 11 -323 13 -13
73 -15 424 -15 316 0 411 3 417 13 4 6 9 219 10 472 0 253 4 884 8 1402 7 908
6 942 -12 951 -19 10 -435 18 -608 11 -121 -4 -295 -5 -642 -1 -202 2 -264 6
-272 16 -15 18 2 24 49 20 79 -7 377 -4 405 4 l30 8 3 115 c1 62 7 118 12 123
8 8 45 12 150 18 29 1 122 -11 128 -17 4 -4 8 -57 10 -118 2 -62 9 -118 14
-124 8 -10 53 -13 163 -13 113 0 155 -3 158 -12 4 -10 8 -10 14 -2 11 17 215
17 226 1 7 -9 10 -9 14 1 3 9 40 12 132 12 115 0 130 -2 146 -20 17 -19 18
-65 12 -1046 -4 -564 -9 -1030 -12 -1035 -4 -5 -24 -12 -46 -15 l-39 -7 0
-281 c-1 -154 -3 -298 -6 -320 -3 -21 -3 -58 1 -81 l6 -43 57 -6 c31 -4 258
-7 504 -9 334 -1 450 1 459 10 14 14 22 688 8 715 -10 18 -119 31 -119 13 0
-5 -7 -1 -15 9 -16 22 -11 56 11 69 55 32 58 76 9 123 -33 31 -35 36 -35 98 0
56 3 67 23 83 32 25 50 61 41 81 -4 9 -8 21 -8 25 -1 5 -14 19 -29 31 l-28 22
3 725 c2 398 7 731 11 739 4 9 17 20 29 25 44 20 38 86 -11 127 -16 13 -21 29
-21 63 0 39 4 46 29 59 32 17 41 34 41 77 0 25 -6 33 -35 45 -41 17 -48 53
-15 82 11 9 29 25 40 35 11 9 20 29 20 45 0 32 -25 72 -45 72 -19 0 -31 27
-34 77 -3 47 6 67 58 136 31 41 39 47 62 42 38 -8 66 24 74 86 4 27 10 48 13
48 56 -8 77 30 67 115 -6 44 -4 61 7 74 32 37 49 215 25 259 -15 26 -135 112
-197 140 -25 12 -57 33 -72 47 l-27 26 2 239 c2 222 1 240 -17 260 -19 20 -19
22 -1 62 27 59 21 130 -16 204 -29 59 -30 60 -11 76 53 43 60 141 13 197 -20
26 -39 36 -76 43 -32 6 -51 6 -53 0 -2 -6 -10 -7 -18 -4 -22 8 -62 -23 -85
-69 -26 -51 -21 -113 13 -159 l22 -30 -27 -48 c-21 -38 -27 -62 -27 -110 0
-59 15 -111 32 -111 16 0 7 -33 -15 -54 -22 -20 -23 -27 -19 -126 2 -58 1
-124 -3 -147 -8 -52 -24 -55 -81 -16 -21 14 -103 59 -182 99 -79 41 -153 80
-165 89 -12 8 -25 15 -29 15 -18 0 -6 -71 23 -145 4 -11 21 -59 38 -106 16
-48 46 -119 67 -160 36 -71 37 -74 26 -127 -9 -41 -20 -62 -44 -83 -64 -58
-139 -31 -275 100 -67 64 -78 95 -48 134 11 15 11 25 2 45 -14 34 -65 90 -96
105 -13 7 -34 32 -47 56 -13 24 -36 58 -52 75 -16 17 -35 42 -42 55 -14 28 -5
105 16 138 8 12 14 38 14 57 0 19 6 41 13 48 51 56 74 97 79 143 7 63 3 73
-25 68 -13 -3 -45 0 -73 6 -158 33 -150 29 -256 131 -40 39 -91 82 -113 97
-22 14 -51 34 -65 43 -14 10 -43 20 -65 24 -69 12 -218 14 -265 4z m1831 -89
c14 -6 36 -28 48 -50 l22 -39 -22 -45 c-12 -25 -27 -45 -33 -44 -27 3 -36 -3
-36 -25 0 -13 7 -29 16 -37 23 -19 63 -103 66 -136 1 -17 -7 -42 -19 -59 -21
-30 -38 -94 -25 -94 4 0 15 -15 24 -32 14 -28 17 -68 18 -258 0 -124 3 -235 7
-248 6 -24 57 -57 73 -47 6 4 13 -1 16 -9 3 -9 15 -16 25 -16 10 0 19 -7 19
-15 0 -8 7 -15 15 -15 7 0 18 -6 22 -12 23 -36 66 -63 105 -67 4 -1 16 -11 28
-23 24 -26 27 -103 5 -132 -8 -10 -12 -22 -10 -26 2 -4 -11 -22 -30 -40 l-35
-34 -272 1 c-150 0 -330 2 -400 4 -122 4 -128 5 -155 32 -16 15 -33 27 -37 27
-15 0 -125 113 -120 122 3 5 12 4 20 -3 8 -6 17 -9 21 -5 3 3 1 6 -5 6 -7 0
-12 4 -12 9 0 4 11 6 25 3 14 -2 22 -8 19 -13 -3 -5 10 -9 28 -8 18 0 27 3 20
6 -10 4 -9 8 5 19 21 16 37 18 28 4 -3 -5 1 -10 10 -10 8 0 20 10 25 23 6 12
14 29 19 37 17 30 31 87 31 131 0 34 -11 66 -41 125 -39 76 -81 183 -99 252
-7 27 -5 32 11 32 10 0 22 -7 27 -16 5 -9 19 -17 31 -18 12 0 22 -5 22 -11 1
-5 18 -18 39 -27 21 -10 40 -24 44 -33 3 -8 12 -15 21 -15 8 0 15 -4 15 -10 0
-5 18 -13 40 -16 22 -4 40 -12 40 -19 0 -13 28 -30 43 -27 4 1 16 -7 27 -18
26 -26 54 -25 68 3 6 12 13 90 16 172 3 83 6 158 6 167 1 10 9 23 19 30 34 24
35 55 2 104 -35 54 -33 103 5 145 14 14 21 28 17 32 -3 4 -1 7 6 7 7 0 18 6
24 13 14 14 18 59 5 51 -4 -3 -8 0 -8 5 0 6 -6 11 -14 11 -8 0 -24 13 -35 29
-45 62 -11 154 58 158 20 2 48 -2 62 -8z m-1174 -225 c-3 -3 -12 -4 -19 -1 -8
3 -5 6 6 6 11 1 17 -2 13 -5z m133 -18 c0 -3 -4 -8 -10 -11 -5 -3 -10 -1 -10
4 0 6 5 11 10 11 6 0 10 -2 10 -4z m-1022 -226 c2 6 13 8 25 5 19 -5 56 -9
125 -14 7 -1 10 -5 7 -11 -3 -5 3 -10 14 -10 10 0 21 6 24 13 2 8 31 12 98 12
110 0 122 -3 81 -21 -37 -15 -276 -19 -252 -4 13 8 13 10 -2 10 -9 0 -20 -5
-23 -11 -8 -12 -305 -9 -305 3 0 4 -5 8 -11 8 -5 0 -7 -5 -3 -11 4 -8 0 -7
-15 1 -35 18 -16 28 54 28 36 0 68 2 71 4 2 3 28 1 57 -3 33 -6 53 -5 55 1z
m662 -10 c11 -1 9 -4 -5 -10 -14 -6 0 -9 45 -9 42 0 60 2 51 8 -19 12 89 26
126 16 26 -7 26 -8 8 -15 -17 -8 -16 -9 10 -11 17 -2 -22 -5 -85 -8 -139 -7
-248 -2 -229 10 11 7 11 9 1 9 -7 0 -11 4 -8 9 5 8 31 8 86 1z m-196 -15 c4
-11 -1 -15 -19 -15 -18 0 -23 4 -19 15 4 8 12 15 19 15 7 0 15 -7 19 -15z m46
6 c0 -5 10 -12 23 -14 16 -3 13 -5 -10 -6 -23 -1 -33 3 -33 14 0 8 5 15 10 15
6 0 10 -4 10 -9z m437 -6 c0 -8 -4 -15 -8 -15 -4 0 -9 7 -13 15 -3 9 0 15 8
15 7 0 13 -7 13 -15z m-198 -65 c34 0 42 -3 37 -15 -4 -12 5 -15 47 -15 64 0
70 -4 85 -56 10 -36 84 -160 104 -174 4 -3 14 -22 23 -43 8 -20 22 -37 30 -37
8 0 15 -6 15 -14 0 -9 10 -13 28 -11 18 1 30 -3 31 -11 4 -25 3 -69 -1 -111
-5 -46 17 -88 65 -125 17 -13 18 -18 6 -18 -8 0 -25 11 -37 25 -12 14 -29 25
-37 25 -29 0 -27 -30 4 -77 17 -25 31 -53 31 -62 0 -8 10 -25 22 -38 l21 -23
-29 -1 -29 -1 25 -9 c20 -7 18 -7 -10 -3 -49 8 -400 14 -427 7 -13 -3 -23 -9
-23 -14 0 -14 37 -20 150 -24 58 -2 110 -5 115 -5 6 0 57 4 114 10 90 10 105
9 120 -5 23 -20 80 -10 90 17 6 17 14 13 78 -39 39 -32 72 -60 72 -63 0 -3 -4
-12 -9 -20 -8 -13 -93 -15 -677 -13 -367 2 -859 3 -1093 4 -298 1 -435 4 -458
13 l-33 11 47 40 c26 22 55 48 63 58 17 19 42 22 57 7 14 -14 690 -16 804 -3
124 14 49 21 -351 29 -310 6 -352 8 -356 19 -3 9 43 77 91 135 18 23 26 49 17
54 -10 6 -75 -28 -100 -53 -10 -10 -32 -24 -49 -32 -18 -8 -32 -17 -32 -21 0
-5 -10 -8 -22 -8 -22 1 -22 1 -3 12 32 18 125 112 125 126 0 7 4 11 10 7 11
-7 50 30 50 48 -1 6 -7 30 -15 52 -19 53 -19 67 4 92 11 12 17 24 14 27 -4 3
13 6 36 6 31 0 48 6 66 25 14 13 25 30 25 37 0 7 9 24 20 38 11 14 20 33 20
43 0 9 6 17 14 17 13 0 46 72 46 102 0 8 7 21 15 28 8 7 13 16 10 20 -9 15 36
17 470 13 237 -1 450 -3 474 -3z m86 -10 c3 -5 -3 -10 -14 -10 -12 0 -21 5
-21 10 0 6 6 10 14 10 8 0 18 -4 21 -10z m310 -330 c-3 -5 -13 -10 -21 -10 -8
0 -12 5 -9 10 3 6 13 10 21 10 8 0 12 -4 9 -10z m-2402 -631 c27 -5 56 -5 65
-1 9 5 30 7 47 6 16 -2 35 2 41 7 9 7 20 7 35 -1 18 -10 98 -19 182 -20 10 0
15 -4 12 -10 -3 -5 1 -10 9 -10 9 0 16 5 16 10 0 7 6 7 19 0 25 -13 32 -13 29
2 -5 20 73 17 91 -4 15 -17 37 -15 26 3 -6 9 17 12 95 11 128 -1 151 -3 145
-12 -3 -6 4 -10 17 -10 18 0 20 2 8 10 -10 7 16 9 80 8 l95 -2 -75 -5 c-90 -8
-54 -17 44 -13 46 3 65 7 55 13 -9 5 -10 9 -2 9 6 0 15 -4 18 -10 10 -15 85
-12 91 4 7 17 74 12 85 -6 6 -10 12 -8 23 7 13 19 15 19 21 3 8 -21 31 -24 39
-5 5 10 7 10 12 0 6 -14 46 -18 42 -5 -2 4 2 8 7 10 6 1 10 -4 10 -10 0 -16
93 -30 116 -17 22 11 98 9 122 -3 14 -7 23 -4 38 13 15 17 22 20 31 11 17 -17
148 -16 149 1 0 10 2 10 6 0 6 -16 203 -18 203 -3 0 13 27 13 32 -1 2 -7 134
-11 413 -12 331 -2 416 -5 441 -16 28 -13 34 -13 49 2 18 18 75 23 90 8 15
-14 71 -17 87 -4 16 14 138 16 138 3 0 -5 -8 -10 -17 -12 -10 -3 7 -5 37 -5
37 -1 47 1 30 6 l-25 7 25 7 c35 9 36 9 56 -10 15 -16 17 -16 29 0 10 13 28
17 87 17 99 0 127 -21 119 -90 -1 -6 -205 -8 -558 -4 -307 2 -803 7 -1103 9
-867 8 -1673 13 -1960 14 -372 0 -424 0 -432 1 -10 0 -10 61 0 77 4 7 39 17
77 23 38 6 71 13 74 15 7 7 211 -5 264 -16z m1544 -15 c-3 -3 -12 -4 -19 -1
-8 3 -5 6 6 6 11 1 17 -2 13 -5z m460 0 c-3 -3 -12 -4 -19 -1 -8 3 -5 6 6 6
11 1 17 -2 13 -5z m230 0 c-3 -3 -12 -4 -19 -1 -8 3 -5 6 6 6 11 1 17 -2 13
-5z m142 2 c-7 -8 -108 -10 -115 -3 -4 4 21 7 56 7 35 0 61 -2 59 -4z m144 -3
c-13 -2 -35 -2 -50 0 -16 2 -5 4 22 4 28 0 40 -2 28 -4z m105 0 c-10 -2 -26
-2 -35 0 -10 3 -2 5 17 5 19 0 27 -2 18 -5z m482 -3 c0 -5 -2 -10 -4 -10 -3 0
-8 5 -11 10 -3 6 -1 10 4 10 6 0 11 -4 11 -10z m-2391 -153 c11 -9 15 -9 18 1
3 6 17 12 33 12 16 0 30 -6 33 -12 3 -10 7 -10 18 -2 15 12 67 16 83 6 17 -10
71 -8 79 3 4 6 10 5 16 -4 5 -7 11 -9 14 -4 7 11 36 11 54 0 6 -4 14 -3 18 3
4 6 11 7 17 4 20 -13 168 -12 161 0 -4 7 -1 7 7 -1 8 -8 20 -9 36 -3 15 6 24
6 24 0 0 -5 27 -7 63 -3 81 7 88 7 179 0 42 -3 79 -3 82 0 7 7 407 6 591 -2
66 -2 127 -4 135 -4 240 3 360 3 360 -1 0 -3 20 -4 45 -2 31 3 54 -1 71 -13
15 -9 23 -12 20 -6 -7 11 -6 12 114 16 36 1 75 6 88 10 14 5 22 3 22 -4 0 -7
8 -8 26 -1 16 7 23 7 19 0 -8 -13 11 -13 34 0 12 6 30 6 51 0 20 -6 39 -6 50
0 13 7 20 6 22 -2 4 -10 10 -10 31 -1 16 8 29 9 32 3 4 -6 11 -10 16 -10 6 0
7 5 4 10 -3 6 -2 10 4 10 5 0 13 -4 16 -10 3 -5 37 -10 74 -10 60 0 69 -2 74
-20 3 -14 -1 -24 -14 -31 -14 -7 -369 -8 -1137 -5 -614 3 -1477 7 -1917 8
-677 1 -803 4 -822 16 -13 8 -23 20 -23 28 0 7 10 20 23 29 20 14 74 15 532
10 370 -5 513 -9 524 -18z m-669 -117 c-11 -7 16 -10 92 -9 78 1 106 4 101 13
-4 7 -2 7 8 -1 16 -13 37 -14 189 -14 453 0 658 -5 672 -17 13 -10 17 -10 21
3 5 12 43 14 270 12 209 -2 267 -5 281 -16 14 -12 18 -12 29 2 10 13 21 14 55
8 26 -5 45 -5 48 1 4 6 25 7 48 4 22 -3 67 -6 98 -7 32 0 60 -5 64 -10 8 -13
58 -11 73 4 11 10 14 10 18 0 3 -7 11 -13 18 -13 7 0 15 6 18 13 3 9 7 9 20
-2 13 -10 20 -11 31 -2 11 9 25 9 55 1 22 -6 52 -8 65 -4 14 3 39 1 56 -4 21
-8 30 -8 30 0 0 5 7 7 16 4 12 -5 212 -8 304 -4 36 1 265 -14 272 -18 3 -2 9
0 13 6 4 6 10 8 14 6 4 -3 77 -6 162 -7 105 0 159 -5 171 -14 41 -28 -3 -34
-239 -31 -127 2 -235 6 -240 8 -4 3 -26 3 -48 1 -56 -6 -265 -5 -830 1 -822 9
-2145 12 -2158 4 -17 -10 -47 21 -47 49 0 23 2 23 96 23 52 0 93 4 90 8 -3 5
14 9 37 10 31 2 38 0 27 -8z m58 -130 c48 0 82 -4 82 -10 0 -5 -12 -11 -27
-11 -24 -1 -23 -2 7 -8 29 -5 36 -11 38 -33 l3 -28 -88 -2 c-139 -4 -277 3
-290 14 -12 9 -11 34 3 77 3 10 24 12 97 7 50 -3 129 -5 175 -6z m450 -12 c8
-7 12 -7 12 1 0 18 304 15 319 -3 11 -13 62 -20 58 -7 -2 7 7 11 31 11 14 0
15 -2 2 -10 -12 -8 -9 -10 13 -10 16 0 26 4 22 10 -3 6 1 10 10 10 9 0 14 -4
11 -8 -3 -5 1 -9 9 -9 8 0 12 4 9 9 -3 4 0 8 5 8 6 0 11 -4 11 -10 0 -6 32
-10 75 -10 50 0 74 4 72 11 -3 17 54 17 70 0 12 -11 16 -12 23 -2 10 17 136
24 178 10 22 -7 37 -7 45 -1 7 6 46 9 87 7 135 -7 144 -7 208 0 43 4 68 3 78
-5 7 -7 23 -10 34 -7 11 3 20 1 20 -4 0 -5 3 -8 8 -7 4 0 15 -2 26 -7 11 -5
21 -3 26 5 5 8 9 9 14 1 4 -6 16 -11 28 -11 17 0 18 2 8 15 -10 13 -9 15 11
16 13 0 39 1 58 2 23 1 36 -3 39 -13 4 -12 3 -13 -10 -3 -12 10 -15 10 -15 -1
0 -12 34 -14 194 -14 112 -1 193 3 193 9 0 13 28 11 32 -2 3 -10 62 -12 267
-6 92 2 93 2 107 -25 20 -39 18 -46 -25 -68 -22 -11 -44 -27 -49 -36 -17 -31
21 -134 49 -134 22 0 32 -37 12 -44 -8 -3 -23 -6 -33 -6 -33 0 -50 -27 -45
-71 4 -46 28 -79 57 -79 10 0 18 -7 18 -17 0 -10 3 -28 6 -40 5 -17 1 -25 -12
-29 -36 -13 -64 -47 -64 -77 0 -41 27 -92 56 -105 24 -12 24 -12 20 -137 -3
-68 -7 -129 -10 -134 -4 -5 -3 -12 1 -14 8 -5 9 -104 3 -338 -2 -75 0 -141 4
-148 4 -7 4 -17 -1 -24 -6 -7 -9 -149 -8 -330 l2 -318 -28 -15 c-16 -8 -32
-22 -37 -32 -12 -23 -14 -132 -2 -132 5 0 21 -11 35 -24 19 -17 26 -35 28 -68
2 -39 0 -44 -15 -40 -11 2 -26 -5 -38 -19 -17 -19 -20 -35 -17 -77 2 -30 9
-57 15 -61 6 -3 14 -19 17 -34 6 -23 4 -27 -11 -25 -11 1 -37 -2 -58 -6 -25
-6 -45 -5 -56 2 -12 7 -30 7 -59 0 -23 -6 -44 -8 -48 -5 -6 7 -5 1414 1 1883
2 133 0 247 -4 254 -10 16 -104 20 -518 21 -178 0 -330 3 -338 6 -11 4 -14 27
-14 103 0 54 -3 105 -6 114 -5 14 -29 16 -159 16 -93 0 -155 4 -157 10 -2 6
-17 3 -38 -8 -38 -19 -39 -27 -27 -159 5 -47 3 -62 -7 -66 -8 -3 -92 -7 -188
-8 -95 -1 -182 -2 -193 -2 -11 0 -33 1 -50 2 -16 2 -119 3 -227 2 -195 -1
-197 -1 -204 -23 -4 -13 -8 -466 -9 -1008 -3 -1203 0 -1095 -25 -1120 -18 -18
-24 -19 -53 -7 -22 8 -53 10 -97 6 -36 -4 -69 -3 -74 2 -19 18 -13 51 11 60
21 8 23 15 23 71 0 56 -3 64 -22 73 -26 11 -33 46 -23 113 5 31 12 46 25 49
37 10 34 127 -4 144 l-21 10 -3 712 c-1 392 1 724 4 740 3 15 12 27 20 27 22
0 36 49 29 102 -5 34 -10 45 -20 41 -18 -6 -35 54 -23 86 4 12 17 30 28 40 12
9 23 33 27 53 5 34 3 39 -26 55 -24 14 -31 25 -31 49 0 21 7 36 21 45 44 30
37 139 -11 154 -23 7 -25 25 -8 72 l12 34 136 -2 c74 -1 141 -6 148 -11z
m1685 -15 c-7 -2 -19 -2 -25 0 -7 3 -2 5 12 5 14 0 19 -2 13 -5z m789 -6 c9
-9 39 -11 108 -7 52 3 122 4 156 2 l61 -4 1 -34 1 -34 -72 -2 c-40 -1 -83 -1
-97 -1 -14 1 -62 2 -107 3 l-83 1 0 29 c0 27 8 60 15 60 2 0 10 -6 17 -13z
m-2757 -127 c4 -6 0 -10 -7 -10 -11 0 -11 -2 0 -9 35 -21 -24 -28 -258 -29
-240 -2 -246 -1 -259 19 -10 18 -10 23 0 30 18 11 517 10 524 -1z m2732 -30
c57 0 153 -13 153 -20 0 -11 -230 -9 -236 1 -3 5 0 18 6 30 11 19 13 19 29 5
10 -9 31 -16 48 -16z m283 -15 c0 -10 -12 -14 -42 -13 -93 1 -103 22 -14 25
43 2 56 0 56 -12z m126 0 c18 -14 18 -14 -11 -15 -16 0 -41 3 -54 7 -23 6 -23
7 -5 14 30 12 48 10 70 -6z m-3486 -54 c3 -6 20 -7 44 -1 24 5 49 5 65 -1 14
-6 52 -9 84 -7 54 3 59 1 75 -24 9 -15 13 -31 9 -35 -4 -4 -91 -7 -192 -7
-149 -1 -186 2 -190 13 -6 16 4 53 15 61 16 10 84 10 90 1z m3153 -46 c18 -3
85 -4 150 -2 105 3 119 1 128 -14 11 -22 -11 -35 -56 -33 -84 5 -118 5 -208 2
-54 -2 -101 0 -104 5 -2 4 -2 18 1 30 6 26 49 49 54 30 2 -7 18 -15 35 -18z
m130 -124 c4 -4 -60 -8 -143 -8 -134 0 -161 3 -146 18 8 7 280 -2 289 -10z
m190 9 c16 0 26 -4 22 -10 -3 -6 -49 -10 -103 -10 -60 0 -92 4 -86 9 10 11 87
20 119 15 11 -2 33 -4 48 -4z m-3207 -77 c7 -10 14 -28 14 -41 0 -37 -39 -44
-188 -37 -78 4 -138 3 -145 -3 -38 -30 -68 11 -50 71 7 28 14 33 48 37 22 3
100 2 174 -2 111 -6 136 -10 147 -25z m2849 -24 c4 -10 13 -19 21 -19 8 0 12
5 9 10 -10 16 26 25 36 9 7 -11 11 -11 17 -1 5 6 19 12 33 12 38 -1 107 8 119
15 5 3 10 -1 10 -10 0 -12 4 -14 19 -5 32 17 39 12 46 -31 5 -29 3 -44 -6 -49
-7 -5 -89 -7 -183 -6 l-171 2 -3 32 c-6 60 37 93 53 41z m-3070 -114 c22 -2
40 -4 40 -6 0 -1 10 -3 23 -4 12 -1 22 2 22 6 0 12 37 11 45 -1 3 -5 12 -10
18 -10 7 0 6 4 -3 10 -13 8 -12 10 3 10 9 0 17 -4 17 -8 0 -6 55 -7 86 -1 20
4 30 -2 31 -19 1 -17 -14 -18 -245 -18 -197 -1 -249 2 -261 13 -34 35 51 46
224 28z m3012 -25 c52 0 36 -24 -20 -27 -45 -3 -64 7 -52 28 4 6 14 8 22 5 8
-3 30 -6 50 -6z m218 -10 c10 -16 -122 -16 -139 1 -6 5 18 9 61 9 40 0 75 -4
78 -10z m85 0 c0 -5 -9 -10 -21 -10 -11 0 -17 5 -14 10 3 6 13 10 21 10 8 0
14 -4 14 -10z m85 0 c11 -17 -3 -28 -30 -22 -32 6 -33 32 -1 32 14 0 28 -4 31
-10z m-3288 -60 c40 -1 76 1 81 4 22 13 35 -53 36 -177 1 -71 -2 -131 -5 -133
-4 -2 -3 -21 1 -41 3 -21 5 -126 3 -233 -2 -107 -4 -351 -5 -543 -1 -344 -1
-347 -22 -352 -12 -3 -85 -4 -163 -3 -79 2 -143 0 -143 -4 0 -13 -48 -9 -52 4
-6 18 1 1417 7 1454 l5 31 93 -3 c50 -2 125 -4 164 -4z m2943 -31 c0 -7 10 -9
24 -5 14 3 27 2 30 -2 2 -4 24 -9 47 -11 23 -1 46 -4 51 -7 4 -3 8 3 9 13 0
10 2 13 5 8 4 -10 71 -12 80 -2 3 2 21 -1 42 -8 l37 -13 -3 -414 c-1 -227 -2
-462 -2 -523 1 -123 -1 -322 -3 -375 -1 -19 -6 -38 -12 -42 -5 -4 -4 -17 5
-33 25 -47 6 -53 -183 -57 -105 -2 -168 1 -171 7 -5 15 4 1426 10 1453 4 22
34 32 34 11z m-1286 -515 c7 -17 -3 -72 -14 -79 -15 -10 -40 7 -46 31 -12 49
43 93 60 48z m146 -44 c0 -25 -4 -30 -25 -30 -14 0 -25 -4 -25 -10 0 -20 -27
-9 -48 20 -29 39 -28 49 10 65 46 19 88 -3 88 -45z m129 -65 c38 -44 47 -78
31 -113 -8 -15 -13 -31 -12 -35 1 -4 -6 -10 -15 -14 -10 -4 -31 -17 -46 -30
-16 -13 -32 -21 -35 -19 -4 2 -16 -5 -27 -16 -20 -20 -20 -20 27 -13 59 9 71
2 53 -32 -27 -51 -76 -59 -99 -15 -12 24 -12 32 0 61 16 38 10 56 -13 42 -28
-15 -27 -96 2 -144 15 -27 21 -47 16 -56 -12 -19 -58 -6 -66 18 -3 10 -14 26
-25 36 -11 10 -20 29 -20 42 0 23 38 84 67 109 11 9 8 15 -13 29 -14 9 -23 19
-20 22 3 3 -4 17 -14 31 -24 30 -25 50 -4 80 31 44 52 17 57 -73 2 -40 12 -45
58 -27 30 11 36 18 30 31 -11 23 8 121 24 121 7 0 27 -16 44 -35z m-264 -17
c16 -40 4 -60 -33 -55 -36 5 -49 29 -34 61 17 37 50 34 67 -6z m167 -2 c6 -29
-26 -55 -36 -29 -4 8 -2 21 4 28 5 6 7 15 3 18 -3 4 1 7 9 7 9 0 18 -11 20
-24z m222 -66 c34 -12 33 -28 -1 -42 -47 -18 -61 -17 -58 7 4 45 16 52 59 35z
m-359 -56 c9 -14 15 -26 13 -27 -2 -1 -13 -8 -25 -14 -42 -24 -83 -10 -83 27
0 45 68 55 95 14z m372 -10 c-3 -3 -12 -4 -19 -1 -8 3 -5 6 6 6 11 1 17 -2 13
-5z m15 -63 c5 -18 7 -35 4 -38 -7 -8 -56 6 -55 15 4 25 -5 32 -10 8 -3 -16
-12 -31 -20 -34 -8 -3 -11 0 -7 6 3 6 2 13 -4 17 -16 10 -12 43 8 54 9 6 30
10 46 8 25 -2 31 -8 38 -36z m213 8 c0 -8 3 -18 6 -24 3 -5 7 -28 8 -51 1 -34
-2 -42 -22 -51 -38 -18 -53 -1 -31 33 10 16 26 34 34 41 13 11 13 12 -2 13
-13 0 -18 8 -18 31 0 20 4 29 13 26 6 -2 12 -10 12 -18z m-61 -5 c10 -25 7
-34 -9 -34 -9 0 -15 9 -15 25 0 28 15 34 24 9z m-98 -19 c1 -8 -2 -15 -7 -15
-5 0 -9 10 -9 22 0 23 12 17 16 -7z m-486 -26 c13 -23 13 -22 -17 -37 -23 -13
-33 -1 -33 39 0 26 36 25 50 -2z m546 -3 c31 -32 6 -80 -37 -69 -26 7 -34 52
-12 69 23 17 31 17 49 0z m-259 -51 c0 -16 -24 -28 -38 -19 -12 7 8 34 26 34
6 0 12 -7 12 -15z m158 -7 c31 -14 32 -24 3 -32 -39 -10 -52 -6 -71 19 l-18
25 30 0 c17 0 42 -5 56 -12z m-402 -58 l18 -30 -27 -10 c-53 -21 -104 18 -74
55 22 26 64 18 83 -15z m327 11 c0 -5 8 -12 18 -14 13 -4 12 -5 -4 -6 -12 0
-24 6 -28 14 -3 8 -1 15 4 15 6 0 10 -4 10 -9z m163 -65 c-4 -56 -1 -66 21
-94 29 -33 34 -72 11 -72 -8 0 -15 -9 -15 -20 0 -11 -4 -20 -10 -20 -5 0 -10
-8 -10 -18 0 -21 -37 -55 -50 -47 -29 18 10 95 47 95 16 0 17 -1 -7 48 -11 22
-20 45 -20 50 0 5 -7 15 -15 22 -16 13 -20 67 -7 86 7 11 42 33 53 34 3 0 4
-29 2 -64z m-286 48 c-3 -3 -12 -4 -19 -1 -8 3 -5 6 6 6 11 1 17 -2 13 -5z
m116 -31 c65 -20 65 -20 41 -38 -18 -14 -18 -16 -1 -26 24 -14 14 -26 -23 -27
-26 -1 -29 2 -19 14 10 12 9 13 -4 8 -19 -7 -54 27 -63 61 -7 30 -1 31 69 8z
m281 -5 c22 -31 21 -59 -1 -51 -11 4 -14 3 -9 -5 9 -15 -4 -15 -38 -2 -19 7
-26 6 -27 -3 -1 -17 -17 24 -18 46 -2 36 70 48 93 15z m-379 -28 c38 -23 48
-50 33 -91 -10 -30 -22 -37 -33 -19 -4 7 -24 8 -51 4 -52 -7 -65 9 -40 50 9
14 23 37 31 51 19 30 19 30 60 5z m-156 -44 c-8 -45 -7 -51 13 -64 12 -9 30
-24 40 -34 12 -12 24 -15 39 -9 25 9 69 3 69 -10 0 -30 -94 -50 -158 -33 -40
11 -70 93 -34 95 13 0 11 3 -6 10 -32 12 -26 50 11 67 15 7 27 18 27 24 0 6 2
9 4 7 2 -2 0 -26 -5 -53z m-109 4 c12 -23 6 -40 -15 -40 -17 0 -38 36 -30 50
10 17 34 11 45 -10z m653 -52 c5 -16 -10 -48 -23 -48 -11 0 -14 43 -3 53 10
11 21 8 26 -5z m-209 -25 c29 -29 25 -40 -17 -45 -16 -3 -32 -10 -37 -18 -10
-17 -40 -6 -40 15 0 12 4 13 19 6 26 -14 34 -2 16 26 -31 47 15 60 59 16z
m-412 -40 c34 -32 36 -53 6 -53 -13 0 -40 -3 -60 -6 -37 -6 -38 -6 -38 24 0
17 3 37 6 46 10 25 55 19 86 -11z m97 -59 c6 -5 -15 -58 -26 -61 -6 -2 -13 6
-15 19 -3 13 -9 31 -13 41 -7 16 -4 17 21 11 16 -4 31 -8 33 -10z m286 -14 c3
-5 -3 -10 -14 -10 -11 0 -23 5 -26 10 -3 6 3 10 14 10 11 0 23 -4 26 -10z
m-39 -36 c19 -9 34 -20 34 -25 0 -5 -1 -9 -3 -9 -1 0 -17 -4 -35 -9 -20 -6
-30 -6 -27 0 4 5 1 9 -4 9 -6 0 -11 11 -11 25 0 30 2 30 46 9z m246 -15 c-4
-25 -1 -30 13 -27 10 2 20 -3 22 -9 7 -19 -22 -16 -61 8 -53 31 -47 49 20 58
6 0 9 -11 6 -30z m-622 -1 c24 -27 21 -42 -9 -46 -17 -3 -21 0 -15 9 5 9 2 11
-8 6 -11 -4 -15 -1 -13 11 2 9 4 23 4 30 1 18 18 15 41 -10z m305 -14 c14 -21
15 -31 5 -54 -14 -34 -30 -42 -93 -46 l-48 -2 26 24 c24 22 25 25 11 46 -18
28 -10 44 24 51 49 9 58 7 75 -19z m-229 -19 c-6 -24 -8 -25 -23 -9 -16 15
-16 17 2 30 23 17 29 12 21 -21z m465 4 c31 -30 33 -59 5 -59 -24 0 -80 56
-73 74 10 24 33 19 68 -15z m-367 -10 c-10 -16 -24 -9 -24 12 0 18 2 19 15 9
8 -7 12 -16 9 -21z m-37 -21 c12 -16 11 -28 -4 -53 -9 -16 -16 -18 -29 -9 -10
6 -22 18 -28 26 -20 33 38 66 61 36z m319 -10 c24 -25 19 -39 -20 -53 -42 -15
-75 -12 -88 7 -9 15 0 50 16 61 15 11 77 1 92 -15z m-432 -29 c26 -24 11 -43
-27 -35 -35 7 -47 21 -47 53 0 21 2 22 28 11 15 -6 35 -19 46 -29z m-1638 -62
c4 -4 -5 -7 -20 -7 -16 0 -25 -4 -21 -10 3 -6 17 -7 31 -4 14 4 24 2 24 -5 0
-7 -34 -11 -102 -11 -57 -1 -144 -3 -194 -5 -87 -4 -92 -3 -97 17 -4 12 -4 25
-2 28 6 9 372 6 381 -3z m84 -8 c-24 -7 -24 -7 8 -14 17 -4 32 -12 32 -17 0
-6 -7 -7 -16 -4 -9 3 -27 6 -41 6 -18 0 -24 4 -19 15 3 8 0 15 -7 15 -9 0 -8
3 1 9 7 4 25 6 40 3 l27 -6 -25 -7z m1933 -13 c19 -23 19 -67 -1 -74 -6 -2
-28 13 -47 32 -34 35 -42 55 -29 69 12 12 58 -5 77 -27z m119 -13 c-3 -27 -9
-51 -15 -54 -21 -14 52 -24 123 -17 20 2 24 -1 22 -17 -6 -32 -24 -47 -51 -42
-35 7 -72 -9 -65 -28 4 -10 0 -15 -10 -15 -19 0 -21 11 -5 27 8 8 5 17 -12 34
-13 13 -23 30 -21 37 2 7 -4 15 -13 18 -23 9 -18 52 10 79 35 36 43 31 37 -22z
m126 14 c3 -21 -1 -27 -16 -27 -27 0 -32 9 -20 36 14 31 32 26 36 -9z m-526
-7 c3 -17 1 -33 -4 -36 -17 -11 -7 -44 23 -78 24 -28 28 -39 20 -54 -17 -31
-47 -34 -60 -5 -9 19 -9 29 0 39 9 11 9 21 -2 42 -8 15 -18 30 -23 33 -13 10
-15 73 -2 81 25 17 44 8 48 -22z m136 -2 c18 -15 11 -52 -11 -56 -21 -4 -87
25 -87 38 0 5 7 16 16 25 18 17 56 14 82 -7z m950 -3 c-2 -16 -8 -25 -19 -25
-11 0 -16 7 -14 23 3 28 2 27 20 27 10 0 14 -9 13 -25z m197 3 c-19 -11 -19
-11 0 -19 14 -5 6 -8 -25 -8 -34 0 -40 3 -25 9 19 8 19 9 -3 9 -42 2 -12 21
31 21 36 -1 39 -2 22 -12z m250 2 c3 -6 -4 -10 -17 -10 -18 0 -20 2 -8 10 19
12 18 12 25 0z m-408 -6 c-3 -3 -12 -4 -19 -1 -8 3 -5 6 6 6 11 1 17 -2 13 -5z
m-2800 -67 c9 -10 11 -122 2 -131 -7 -7 -18 -7 -183 -4 -102 3 -132 0 -144
-11 -25 -26 -47 -1 -50 59 -2 30 0 65 3 78 l6 24 179 -4 c98 -2 182 -7 187
-11z m1553 4 c0 -6 -4 -12 -9 -15 -13 -8 -42 4 -35 15 7 12 44 12 44 0z m301
-13 c1 -7 3 -23 4 -34 3 -32 -26 -62 -67 -69 -36 -7 -38 -6 -38 19 0 20 9 32
34 47 19 11 37 26 40 34 7 18 26 20 27 3z m-231 -24 c0 -14 -4 -23 -10 -19 -5
3 -10 15 -10 26 0 10 5 19 10 19 6 0 10 -12 10 -26z m331 -2 c-28 -4 -40 6
-21 18 9 6 20 4 29 -3 12 -10 11 -13 -8 -15z m881 16 c4 -11 64 -20 123 -19
51 1 162 2 177 2 17 -1 18 -27 2 -53 -4 -6 -3 -8 3 -5 7 5 11 -6 11 -27 0 -29
-4 -35 -26 -39 -15 -3 -32 -1 -39 4 -7 7 -19 6 -33 -3 -17 -11 -22 -11 -29 1
-6 10 -10 10 -16 1 -5 -8 -19 -9 -44 -5 -54 11 -111 13 -111 5 0 -14 -39 -18
-50 -5 -12 15 -11 112 2 138 10 20 25 22 30 5z m-1262 -44 c0 -2 -7 -4 -15 -4
-8 0 -15 4 -15 10 0 5 7 7 15 4 8 -4 15 -8 15 -10z m424 -12 c8 -13 -50 -43
-68 -36 -16 6 -21 25 -9 37 9 10 71 9 77 -1z m-457 -24 c39 -14 43 -35 8 -44
-29 -7 -55 10 -55 37 0 22 3 23 47 7z m113 -38 c13 -8 12 -10 -2 -10 -10 0
-21 0 -25 -1 -4 0 -9 4 -11 10 -5 14 18 14 38 1z m323 2 c3 -4 3 -19 0 -33
l-5 -26 -22 21 c-15 14 -19 25 -13 34 10 13 33 16 40 4z m220 1 c3 -5 8 -21
11 -38 6 -27 4 -30 -19 -30 -21 0 -25 5 -25 31 0 31 6 44 21 44 4 0 10 -3 12
-7z m-283 -30 c0 -9 7 -24 15 -33 13 -15 13 -19 2 -29 -19 -15 -44 -5 -51 22
-11 41 -7 57 14 57 12 0 20 -7 20 -17z m214 -42 c-5 -12 -9 -9 -15 13 -4 16
-5 34 -2 39 9 15 25 -34 17 -52z m-459 -27 c3 -25 13 -48 20 -50 16 -6 37 -62
29 -75 -17 -28 -74 11 -74 51 0 8 -9 26 -20 40 -24 30 -25 53 -5 74 24 24 42
9 50 -40z m146 46 c25 -14 26 -65 2 -67 -10 -1 -32 -5 -48 -8 -37 -8 -82 22
-72 48 10 27 85 44 118 27z m-1886 -14 c33 -3 61 -10 63 -16 5 -15 32 -12 32
3 0 7 9 13 21 14 14 1 19 -3 15 -13 -3 -8 0 -14 6 -14 8 0 8 -3 2 -9 -9 -9
-136 -22 -204 -21 -19 0 -96 2 -170 3 -132 2 -135 3 -138 25 -2 15 3 25 18 30
23 8 248 7 355 -2z m1625 -7 c7 -11 10 -21 8 -22 -2 -1 -13 -8 -25 -14 -35
-20 -43 -16 -43 22 0 31 3 35 25 35 14 0 29 -8 35 -21z m524 -5 c21 -20 20
-50 0 -58 -26 -10 -34 -7 -46 19 -8 19 -8 28 2 40 16 19 25 19 44 -1z m131
-31 c-1 -16 -3 -31 -3 -35 -3 -11 -72 -28 -88 -21 -22 8 -17 19 21 42 19 11
35 25 35 31 0 5 8 10 19 10 14 0 18 -7 16 -27z m569 12 c18 -13 15 -20 -7 -16
-4 1 -10 -6 -13 -14 -8 -21 -21 -19 -29 5 -12 38 14 52 49 25z m136 -5 c0 -5
-8 -10 -17 -10 -15 0 -16 2 -3 10 19 12 20 12 20 0z m287 -4 c3 -3 -22 -5 -56
-5 -33 1 -63 4 -65 8 -5 8 113 5 121 -3z m-1233 -24 c3 -5 -1 -9 -9 -9 -8 0
-15 4 -15 9 0 4 4 8 9 8 6 0 12 -4 15 -8z m-2274 -27 c7 -8 20 -15 29 -15 14
0 14 2 1 10 -13 9 -13 10 0 11 56 4 186 -5 191 -13 4 -7 9 -6 13 1 4 6 17 11
29 11 18 0 19 -2 7 -11 -12 -8 -9 -9 12 -7 15 2 27 0 28 -4 3 -51 15 -48 -184
-46 -176 1 -185 2 -190 21 -11 45 36 76 64 42z m1871 -8 c29 -22 40 -52 25
-72 -10 -14 -16 -15 -34 -6 -12 6 -22 16 -22 21 0 6 -4 10 -10 10 -5 0 -10 -7
-10 -15 0 -8 -5 -15 -10 -15 -10 0 -4 63 7 83 6 11 36 8 54 -6z m257 -6 c10
-6 10 -10 -2 -21 -9 -7 -13 -17 -9 -24 3 -6 3 -8 -2 -4 -4 4 -16 3 -26 -3 -11
-5 -20 -6 -20 -2 -9 61 -8 63 19 63 15 0 33 -4 40 -9z m174 -7 c68 -7 102 -20
93 -34 -3 -5 -8 -28 -11 -50 -5 -38 -3 -45 25 -71 33 -30 36 -36 22 -58 -5 -8
-16 -11 -30 -6 -20 6 -27 22 -34 70 -1 12 -13 35 -25 52 -12 17 -21 42 -20 55
2 18 -1 22 -17 20 -11 -2 -23 -8 -26 -13 -11 -18 -67 -6 -73 15 -6 25 2 39 19
32 8 -3 42 -8 77 -12z m838 -13 c0 -5 14 -12 30 -16 17 -4 30 -10 30 -15 0 -9
-60 -19 -77 -13 -19 7 -16 53 2 53 8 0 15 -4 15 -9z m190 -20 c0 -16 -19 -23
-43 -15 l-22 8 25 7 c36 10 40 10 40 0z m81 -10 c-8 -5 -20 -7 -28 -4 -21 8
-15 13 15 13 20 0 23 -3 13 -9z m-1223 -7 c25 -7 30 -41 8 -50 -16 -6 -56 24
-56 43 0 14 13 16 48 7z m312 -19 c18 -22 9 -26 -43 -19 -38 6 -45 9 -36 20
15 19 63 18 79 -1z m-520 -14 c0 -29 -34 -65 -53 -58 -26 10 -20 45 11 61 36
20 42 20 42 -3z m163 -14 c4 -7 6 -25 5 -42 -3 -24 -8 -30 -28 -31 -14 0 -42
-6 -62 -11 -20 -6 -39 -8 -42 -5 -15 14 -3 56 23 82 23 24 34 28 62 23 19 -3
37 -10 42 -16z m577 4 c0 -13 57 -34 75 -27 24 9 17 -9 -15 -37 -16 -15 -31
-37 -32 -50 0 -12 -2 -29 -3 -37 -1 -8 3 -21 8 -28 6 -7 7 -15 4 -18 -3 -4 13
-16 36 -28 l42 -21 33 50 c17 27 32 53 32 57 0 5 -12 26 -26 48 -44 67 -36 73
96 76 63 2 124 3 135 4 47 3 110 -9 120 -24 7 -9 15 -13 18 -9 4 3 1 -6 -6
-20 -6 -14 -16 -25 -21 -24 -9 2 -11 -35 -5 -95 1 -13 18 -36 36 -52 l35 -29
23 29 c48 59 51 78 19 140 -16 31 -38 60 -49 64 -23 10 -25 9 84 16 40 3 78 1
85 -4 6 -6 39 -5 80 1 66 10 69 10 86 -13 21 -27 35 -141 24 -197 -4 -23 -20
-49 -41 -70 -31 -28 -34 -37 -30 -72 3 -27 13 -47 31 -63 63 -54 59 -214 -6
-249 -16 -8 -22 -7 -34 8 -20 26 -17 38 16 71 l29 30 -24 36 c-14 20 -25 44
-25 52 0 32 -31 26 -65 -12 -39 -45 -42 -72 -15 -131 10 -24 16 -44 12 -46 -4
-2 -27 -3 -52 -3 -25 1 -51 -2 -57 -7 -13 -10 -63 16 -63 32 0 4 11 24 24 44
27 40 28 56 3 81 -9 10 -17 23 -17 30 0 6 -5 17 -11 23 -9 9 -22 4 -53 -22
-32 -26 -41 -40 -41 -65 0 -17 7 -35 15 -40 11 -7 11 -10 2 -10 -9 0 -7 -9 8
-30 l21 -30 -28 -1 c-15 -1 -38 0 -50 0 -11 1 -24 -2 -27 -7 -9 -15 -55 -2
-59 17 -4 19 20 71 33 71 6 0 10 8 10 19 0 26 -49 111 -64 111 -6 0 -20 -13
-29 -30 -10 -16 -22 -30 -27 -30 -5 0 -14 -8 -19 -19 -15 -26 3 -78 33 -102
36 -28 33 -42 -6 -34 -53 12 -98 14 -98 4 0 -15 -49 -22 -65 -9 -23 19 -18 64
9 89 25 24 25 59 -1 74 -7 4 -13 14 -13 21 0 8 -6 19 -14 25 -11 10 -23 6 -55
-16 -38 -27 -40 -31 -41 -81 0 -45 4 -57 28 -78 27 -25 27 -26 3 -20 -13 3
-37 -2 -52 -9 -24 -13 -30 -13 -44 1 -13 13 -15 38 -13 150 2 79 7 135 13 136
6 1 19 -13 30 -30 11 -17 25 -31 32 -32 18 0 66 67 66 93 0 24 -47 107 -61
107 -4 0 -20 -17 -36 -37 -26 -32 -30 -34 -36 -17 -10 27 -9 265 1 292 8 21
39 32 39 13z m-438 -24 c9 -15 -2 -37 -19 -37 -39 0 -71 41 -40 53 16 7 50 -3
59 -16z m-427 2 c12 -19 -5 -23 -22 -6 -16 16 -16 17 -1 17 9 0 20 -5 23 -11z
m659 -77 c-4 -13 -14 -22 -25 -22 -21 0 -24 21 -8 52 9 17 13 18 25 7 8 -8 11
-24 8 -37z m-527 4 c18 -19 33 -23 78 -23 62 0 71 -4 60 -30 -5 -10 -8 -21 -7
-25 2 -10 -20 -15 -68 -14 -46 1 -59 -5 -77 -38 -10 -18 -11 -18 -18 4 -4 13
-3 25 4 29 7 5 0 16 -19 29 -29 22 -41 67 -23 85 14 14 49 6 70 -17z m305 -3
c15 -28 14 -53 -3 -53 -5 0 -9 6 -9 14 0 8 -6 16 -14 19 -7 3 -16 15 -19 26
-8 32 25 27 45 -6z m-405 -42 c20 -23 21 -26 5 -38 -9 -7 -34 -13 -54 -13 -38
0 -38 1 -38 39 0 57 43 63 87 12z m362 -2 c18 -14 21 -23 13 -31 -8 -8 -18 -6
-36 6 -26 17 -31 27 -19 39 10 10 16 8 42 -14z m145 -39 c-23 -46 -77 -52 -66
-7 8 35 20 44 51 39 28 -4 28 -5 15 -32z m92 -11 c3 -6 1 -15 -5 -19 -7 -4
-10 -19 -7 -33 6 -36 -18 -61 -45 -47 -25 14 -24 44 3 80 23 31 42 38 54 19z
m-639 -15 c-3 -3 -12 -4 -19 -1 -8 3 -5 6 6 6 11 1 17 -2 13 -5z m384 -25 c76
-35 68 -83 -13 -71 -30 5 -48 32 -48 73 0 24 3 24 61 -2z m149 -31 c0 -5 11
-17 24 -29 16 -14 22 -28 19 -42 -11 -49 -11 -49 -45 -31 -43 22 -57 42 -58
80 0 40 16 56 41 41 11 -7 19 -15 19 -19z m-237 5 c50 -56 14 -159 -53 -151
-8 1 -32 -2 -54 -6 -29 -7 -40 -5 -47 5 -5 8 -9 10 -9 5 0 -5 -7 -3 -15 4 -8
7 -15 9 -15 6 0 -4 -7 0 -16 8 -17 17 -12 47 10 66 11 8 18 6 30 -12 9 -12 16
-30 16 -40 0 -23 14 -23 51 -1 32 19 36 31 14 39 -13 5 -13 37 1 82 5 18 68
15 87 -5z m-279 -9 c9 -24 7 -34 -7 -34 -15 0 -48 36 -40 44 12 12 41 6 47
-10z m64 -19 c-2 -30 -4 -33 -16 -21 -9 8 -11 22 -7 35 10 34 26 24 23 -14z
m100 -10 c0 -15 -6 -25 -14 -25 -8 0 -14 10 -14 25 0 15 6 25 14 25 8 0 14
-10 14 -25z m486 -11 c8 -21 -1 -34 -24 -34 -28 0 -36 21 -15 37 24 17 32 17
39 -3z m-652 -51 c25 -22 23 -33 -7 -33 -13 0 -29 8 -34 19 -18 32 10 42 41
14z m450 5 c24 -20 29 -45 10 -53 -42 -18 -78 -21 -89 -9 -7 6 -17 14 -23 16
-6 2 -8 11 -4 22 12 32 77 47 106 24z m88 -47 c0 -6 -4 -12 -8 -15 -5 -3 -9 1
-9 9 0 8 4 15 9 15 4 0 8 -4 8 -9z m-552 -30 c10 -6 7 -10 -12 -13 -18 -4 -26
-1 -26 8 0 16 18 18 38 5z m657 -11 c9 -14 14 -126 6 -137 -15 -20 -52 -32
-91 -28 -35 3 -39 2 -26 -8 15 -11 15 -14 -4 -35 -23 -24 -48 -19 -70 16 -8
12 -13 13 -16 5 -3 -7 -23 -13 -44 -13 -50 0 -70 28 -45 66 19 29 34 30 69 3
34 -27 62 -22 58 11 -2 14 -10 29 -18 33 -8 4 -14 12 -14 16 0 12 53 71 63 71
8 0 6 -57 -4 -89 -5 -18 59 -37 74 -22 8 8 7 15 -1 23 -18 18 -15 32 16 66 29
34 37 37 47 22z m-519 -70 c3 -30 11 -61 19 -70 19 -21 19 -60 1 -60 -34 0
-46 13 -46 50 0 21 -6 43 -14 49 -37 31 -25 107 15 93 17 -7 22 -19 25 -62z
m254 45 c26 -16 40 -33 40 -46 0 -18 -4 -20 -27 -14 -33 7 -58 31 -68 63 -8
29 6 28 55 -3z m190 5 c0 -11 -7 -20 -15 -20 -15 0 -21 21 -8 33 12 13 23 7
23 -13z m-309 -10 c27 -15 24 -48 -5 -56 -21 -5 -96 18 -96 30 0 2 3 11 6 20
7 19 64 22 95 6z m-276 -15 c0 -5 -10 -11 -22 -13 -16 -2 -23 2 -23 13 0 11 7
15 23 13 12 -2 22 -7 22 -13z m30 -65 c21 -41 19 -53 -10 -48 -34 7 -21 -9 23
-29 l37 -16 -50 -7 c-40 -6 -54 -4 -68 10 -27 25 -14 86 22 105 14 8 27 14 28
15 1 0 9 -13 18 -30z m295 -16 c0 -8 -7 -26 -16 -39 -16 -24 -15 -25 5 -25 11
0 21 -4 21 -8 0 -4 -25 -7 -57 -6 -79 3 -95 37 -28 59 19 7 31 18 33 33 3 18
7 20 23 12 10 -6 19 -17 19 -26z m305 -74 c3 -5 1 -10 -4 -10 -6 0 -11 5 -11
10 0 6 2 10 4 10 3 0 8 -4 11 -10z"/>
<path d="M7468 12523 c6 -2 18 -2 25 0 6 3 1 5 -13 5 -14 0 -19 -2 -12 -5z"/>
<path d="M8255 12530 c-3 -5 1 -10 10 -10 9 0 13 5 10 10 -3 6 -8 10 -10 10
-2 0 -7 -4 -10 -10z"/>
<path d="M7733 12262 c-29 -14 -53 -29 -53 -34 0 -5 -10 -22 -22 -39 -18 -24
-22 -42 -21 -99 2 -70 13 -103 43 -130 9 -8 20 -25 24 -37 8 -24 17 -29 30
-15 4 4 33 7 64 7 78 1 142 40 173 106 18 40 21 58 15 111 -5 52 -11 67 -34
89 -37 35 -90 62 -108 55 -7 -3 -16 -1 -19 4 -9 15 -35 10 -92 -18z m144 -48
c48 -28 66 -61 67 -124 1 -41 -4 -61 -17 -74 -9 -10 -17 -22 -17 -27 0 -11
-65 -39 -90 -39 -34 0 -103 48 -117 80 -50 120 68 244 174 184z"/>
<path d="M6310 11470 c0 -5 5 -10 11 -10 5 0 7 5 4 10 -3 6 -8 10 -11 10 -2 0
-4 -4 -4 -10z"/>
<path d="M6405 11470 c-3 -5 3 -10 15 -10 12 0 18 5 15 10 -3 6 -10 10 -15 10
-5 0 -12 -4 -15 -10z"/>
<path d="M6825 11460 c3 -5 11 -10 16 -10 6 0 7 5 4 10 -3 6 -11 10 -16 10 -6
0 -7 -4 -4 -10z"/>
<path d="M6878 11463 c7 -3 16 -2 19 1 4 3 -2 6 -13 5 -11 0 -14 -3 -6 -6z"/>
<path d="M6918 11463 c7 -3 16 -2 19 1 4 3 -2 6 -13 5 -11 0 -14 -3 -6 -6z"/>
<path d="M6218 11193 c7 -3 16 -2 19 1 4 3 -2 6 -13 5 -11 0 -14 -3 -6 -6z"/>
<path d="M8305 11040 c3 -5 10 -10 16 -10 5 0 9 5 9 10 0 6 -7 10 -16 10 -8 0
-12 -4 -9 -10z"/>
<path d="M6048 10893 c7 -3 16 -2 19 1 4 3 -2 6 -13 5 -11 0 -14 -3 -6 -6z"/>
<path d="M6398 10893 c7 -3 16 -2 19 1 4 3 -2 6 -13 5 -11 0 -14 -3 -6 -6z"/>
<path d="M6035 8780 c4 -6 11 -8 16 -5 14 9 11 15 -7 15 -8 0 -12 -5 -9 -10z"/>
<path d="M6085 8780 c3 -5 10 -10 16 -10 5 0 9 5 9 10 0 6 -7 10 -16 10 -8 0
-12 -4 -9 -10z"/>
<path d="M6250 8780 c0 -5 7 -7 15 -4 8 4 15 8 15 10 0 2 -7 4 -15 4 -8 0 -15
-4 -15 -10z"/>
<path d="M9385 8581 c-3 -5 -1 -12 5 -16 5 -3 10 1 10 9 0 18 -6 21 -15 7z"/>
<path d="M9325 8570 c3 -5 8 -10 11 -10 2 0 4 5 4 10 0 6 -5 10 -11 10 -5 0
-7 -4 -4 -10z"/>
<path d="M6348 8473 c7 -3 16 -2 19 1 4 3 -2 6 -13 5 -11 0 -14 -3 -6 -6z"/>
<path d="M9108 8252 l22 -7 -24 -35 c-35 -53 -32 -101 9 -145 35 -36 55 -44
55 -22 0 7 11 28 25 47 31 43 31 53 -2 117 -27 51 -30 53 -68 52 -30 -1 -34
-3 -17 -7z"/>
<path d="M9568 8253 c9 -4 6 -16 -13 -48 -34 -59 -32 -78 16 -130 45 -49 59
-55 59 -26 0 10 6 24 14 30 8 6 19 25 26 41 11 27 10 33 -12 62 -14 18 -28 43
-32 56 -6 17 -15 22 -39 21 -18 0 -26 -3 -19 -6z"/>
<path d="M9236 7997 l-27 -52 23 -64 c25 -70 42 -85 54 -49 4 12 18 40 32 60
l25 38 -27 38 c-14 21 -26 45 -26 54 0 9 -6 18 -14 21 -9 4 -23 -13 -40 -46z"/>
<path d="M9008 8005 c-23 -30 -23 -96 -2 -141 23 -48 44 -45 89 16 31 42 31
60 0 110 -30 47 -61 52 -87 15z"/>
<path d="M9457 7999 c-38 -43 -37 -92 4 -147 30 -41 59 -55 59 -29 0 7 12 29
26 50 19 29 24 45 19 67 -4 17 -11 33 -16 36 -6 3 -14 17 -19 30 -13 33 -40
30 -73 -7z"/>
<path d="M9038 7813 c6 -2 18 -2 25 0 6 3 1 5 -13 5 -14 0 -19 -2 -12 -5z"/>
<path d="M7885 13070 c-3 -5 -1 -10 4 -10 6 0 11 5 11 10 0 6 -2 10 -4 10 -3
0 -8 -4 -11 -10z"/>
<path d="M8268 12793 c7 -3 16 -2 19 1 4 3 -2 6 -13 5 -11 0 -14 -3 -6 -6z"/>
<path d="M6027 12713 c-17 -31 -16 -86 3 -127 25 -55 25 -72 3 -85 -16 -9 -18
-32 -20 -246 -2 -190 -5 -242 -18 -267 -8 -17 -13 -34 -10 -36 3 -3 5 0 5 6 0
7 6 12 14 12 37 0 45 27 46 153 0 67 1 177 3 245 2 118 3 123 28 145 23 19 25
25 15 47 -6 14 -14 27 -18 30 -4 3 -14 23 -23 43 -11 27 -13 43 -5 57 5 10 10
21 10 24 0 9 -28 7 -33 -1z"/>
<path d="M6675 11710 c3 -5 10 -10 16 -10 5 0 9 5 9 10 0 6 -7 10 -16 10 -8 0
-12 -4 -9 -10z"/>
<path d="M7471 9864 c-34 -17 -77 -45 -94 -63 -18 -17 -38 -31 -45 -31 -11 0
-118 -81 -137 -105 -15 -17 -107 -65 -127 -65 -9 0 -20 -5 -24 -11 -3 -6 -24
-9 -45 -7 -37 3 -39 2 -55 -36 -11 -30 -18 -36 -24 -26 -5 8 -11 12 -13 10 -3
-3 -7 -327 -10 -720 -2 -393 -7 -827 -9 -963 -4 -217 -3 -251 11 -268 15 -17
40 -19 428 -23 376 -4 413 -3 426 12 12 14 16 106 21 582 3 311 6 819 7 1129
0 514 -2 565 -17 582 -20 22 -52 29 -155 32 -68 2 -83 -1 -138 -29z m227 -101
c2 -22 -2 -32 -15 -37 -25 -10 -40 15 -35 59 4 34 5 35 26 22 12 -8 22 -27 24
-44z m-95 24 c15 -10 16 -16 5 -40 -14 -30 -45 -43 -82 -33 -29 7 -40 48 -17
70 18 19 71 21 94 3z m-162 -126 c12 -55 4 -67 -29 -45 l-27 18 15 -23 c15
-22 69 -46 118 -54 32 -5 36 -14 13 -26 -19 -11 -18 -13 20 -49 49 -47 61 -92
29 -119 -12 -10 -28 -31 -36 -46 -11 -20 -21 -27 -37 -25 -19 3 -22 9 -19 38
1 19 7 37 12 38 6 2 10 12 10 22 0 10 4 21 9 24 14 9 5 69 -12 80 -25 16 -31
0 -13 -35 22 -44 4 -89 -36 -89 -32 0 -83 57 -67 76 10 13 45 8 67 -9 8 -6 12
-5 12 5 0 7 -10 20 -22 28 -12 8 -30 23 -40 33 -10 9 -22 17 -27 17 -5 0 -17
12 -26 27 -36 54 -11 156 40 165 28 5 35 -3 46 -51z m69 -10 c0 -3 -5 -13 -10
-21 -16 -26 -43 10 -34 45 l7 28 19 -22 c10 -13 18 -26 18 -30z m53 37 c29
-17 37 -28 37 -56 0 -28 -57 -57 -77 -40 -15 12 -17 48 -4 48 5 0 8 14 6 30
-4 33 4 37 38 18z m125 0 c7 -7 12 -26 12 -43 0 -30 -2 -31 -31 -27 -35 5 -44
21 -35 57 7 27 34 33 54 13z m-394 -100 c21 -30 8 -40 -36 -27 -47 12 -56 26
-26 38 35 15 46 13 62 -11z m395 -42 c6 -7 8 -21 5 -31 -6 -14 -15 -16 -52
-11 -55 7 -57 9 -42 35 13 25 71 29 89 7z m-329 -26 c0 -5 -4 -10 -10 -10 -5
0 -10 5 -10 10 0 6 5 10 10 10 6 0 10 -4 10 -10z m-61 -19 c25 -14 17 -71 -10
-71 -6 0 -7 5 -3 12 4 6 3 8 -3 5 -19 -12 -72 4 -67 19 2 8 6 21 9 29 5 17 47
20 74 6z m-251 -28 c2 -15 -2 -23 -11 -23 -29 0 -47 12 -47 32 0 30 54 21 58
-9z m58 2 c-4 -24 -16 -30 -16 -7 0 12 4 22 9 22 5 0 8 -7 7 -15z m578 -31
c28 -11 19 -41 -14 -46 -26 -4 -30 -1 -30 18 0 12 6 25 13 27 6 3 13 6 14 6 1
1 8 -2 17 -5z m-639 -40 c38 -38 38 -54 -1 -54 -31 0 -64 33 -64 65 0 35 23
32 65 -11z m125 21 c7 -8 10 -25 6 -40 -9 -35 -52 -35 -68 0 -10 21 -8 28 8
40 24 19 39 19 54 0z m230 -63 c0 -9 -6 -12 -16 -8 -9 3 -18 6 -20 6 -2 0 -4
9 -4 20 0 18 2 19 20 8 11 -7 20 -19 20 -26z m-127 22 c3 -4 0 -16 -8 -26 -7
-11 -11 -27 -8 -34 3 -8 0 -14 -7 -14 -6 0 -8 5 -5 10 3 6 -3 10 -13 10 -31 0
-46 25 -27 44 16 16 56 22 68 10z m393 -52 c45 -37 35 -62 -24 -62 -44 0 -52
11 -37 48 16 36 30 40 61 14z m-482 -46 c10 -36 7 -61 -11 -86 -10 -14 -23
-41 -28 -60 -7 -24 -17 -36 -31 -38 -33 -5 -36 30 -7 64 20 23 24 38 23 84 -2
84 -3 81 24 69 13 -6 27 -21 30 -33z m241 24 c3 -5 1 -10 -4 -10 -6 0 -11 5
-11 10 0 6 2 10 4 10 3 0 8 -4 11 -10z m-327 -33 c11 -13 13 -57 2 -54 -3 0
-20 -3 -37 -7 -58 -14 -94 16 -71 58 11 20 90 22 106 3z m262 5 c0 -4 -5 -13
-12 -20 -7 -7 -8 -12 -3 -12 4 0 0 -9 -10 -20 -22 -24 -28 -25 -76 -2 -34 15
-53 41 -31 43 52 4 74 8 79 13 9 9 53 7 53 -2z m174 -30 c4 -11 17 -25 30 -32
26 -13 38 -41 26 -59 -5 -9 -13 -9 -33 0 -21 10 -27 19 -27 45 0 18 -4 36 -10
39 -13 8 -13 25 -1 25 5 0 12 -8 15 -18z m-94 -10 c0 -10 9 -28 20 -40 28 -30
27 -72 -3 -72 -12 0 -32 7 -44 15 -20 14 -23 14 -34 -7 -11 -21 -12 -21 -26
-3 -16 23 -13 100 4 100 7 0 18 6 25 13 19 19 58 15 58 -6z m-176 -31 c3 -5
-1 -11 -9 -15 -15 -6 -29 7 -18 18 9 9 21 8 27 -3z m426 -2 c0 -15 -19 -49
-28 -49 -41 1 -37 60 4 60 13 0 24 -5 24 -11z m-667 -53 c16 -12 24 -46 11
-46 -18 0 -44 24 -44 40 0 23 8 25 33 6z m234 -26 c-6 -25 -3 -30 13 -30 11 0
20 -7 20 -15 0 -18 -38 -20 -75 -3 -31 14 -31 25 -3 55 31 34 52 30 45 -7z
m315 -12 c0 -13 1 -29 1 -35 -1 -21 22 -15 45 12 12 14 27 25 34 25 24 0 48
-33 48 -67 0 -30 -3 -33 -31 -33 -17 0 -39 5 -50 11 -16 8 -25 5 -47 -13 -15
-13 -26 -31 -24 -40 2 -10 0 -18 -5 -18 -13 0 -45 58 -39 69 8 12 -18 21 -62
21 -26 0 -41 6 -50 20 -10 17 -10 21 3 27 9 3 28 0 41 -6 27 -12 44 -7 44 12
0 15 37 34 68 36 16 1 22 -5 24 -21z m-399 -57 c21 -37 22 -55 0 -72 -11 -10
-14 -10 -9 -1 4 7 2 12 -7 12 -20 0 -48 65 -34 79 18 18 32 13 50 -18z m-120
-57 c37 -19 47 -32 40 -51 -8 -21 -52 -15 -78 12 -48 47 -25 71 38 39z m247
-33 c0 -5 3 -16 6 -25 7 -19 -21 -21 -63 -5 l-28 11 30 14 c36 16 55 17 55 5z
m113 0 c31 -12 42 -50 19 -67 -16 -12 -16 -13 0 -19 23 -9 31 -34 10 -33 -9 1
-26 -2 -38 -5 -15 -5 -28 0 -47 17 -34 32 -36 78 -5 100 26 19 29 19 61 7z
m263 -17 c15 -22 15 -27 3 -35 -18 -11 -46 -11 -53 0 -8 13 11 61 24 61 5 0
17 -12 26 -26z m-498 -17 c3 -21 -2 -29 -23 -37 -34 -13 -65 -13 -65 1 0 14
62 70 75 66 5 -2 11 -16 13 -30z m422 -14 c0 -7 -9 -13 -20 -13 -22 0 -23 3
-13 39 6 23 7 23 20 6 7 -11 13 -25 13 -32z m-593 30 c-4 -3 -2 -12 5 -20 13
-17 4 -28 -17 -20 -21 9 -20 47 2 47 9 0 13 -3 10 -7z m491 -32 c9 -5 29 -14
45 -20 31 -12 37 -47 8 -56 -28 -9 -50 4 -57 34 -4 14 -11 32 -17 39 -11 14
-4 16 21 3z m-217 -21 c23 -13 25 -55 3 -64 -26 -10 -79 -7 -92 6 -42 42 30
89 89 58z m392 -15 c9 -8 13 -23 10 -34 -7 -26 -52 -37 -71 -17 -13 13 -11 17
14 40 35 30 29 29 47 11z m-533 -41 c0 -9 11 -30 26 -46 16 -20 24 -40 22 -57
-4 -34 -35 -40 -47 -9 -13 37 -21 128 -11 128 6 0 10 -7 10 -16z m-103 -22 c6
-4 13 -16 15 -27 2 -16 -3 -21 -26 -23 -32 -4 -46 10 -39 39 5 19 29 25 50 11z
m638 -12 c3 -5 1 -10 -4 -10 -6 0 -11 5 -11 10 0 6 2 10 4 10 3 0 8 -4 11 -10z
m-365 -12 c-1 -34 -15 -57 -46 -74 -40 -22 -60 -10 -50 30 9 38 96 78 96 44z
m147 -14 c18 -5 41 -54 24 -52 -28 3 -51 -4 -51 -17 0 -21 -15 -19 -45 8 -48
41 -1 81 72 61z m120 -10 c3 -8 1 -26 -5 -39 -6 -13 -7 -25 -3 -27 4 -2 11
-16 15 -31 5 -21 3 -28 -6 -25 -7 3 -15 15 -18 29 -4 14 -13 23 -23 23 -14 -1
-17 7 -17 42 0 40 2 44 25 44 14 0 28 -7 32 -16z m93 -64 c13 -9 13 -11 0 -19
-17 -12 -30 -5 -30 15 0 16 9 18 30 4z m-585 -16 c89 -5 87 -4 65 -34 -12 -16
-16 -30 -10 -36 12 -12 -5 -38 -19 -30 -6 4 -9 12 -6 17 8 12 -19 39 -39 39
-8 0 -17 -4 -21 -10 -3 -6 -16 -5 -33 3 -32 14 -42 25 -42 51 0 15 4 17 28 10
15 -4 50 -9 77 -10z m347 -69 c17 -23 7 -35 -29 -35 -32 0 -41 5 -55 31 -18
31 -23 70 -11 83 6 5 73 -50 95 -79z m-162 55 c8 -5 12 -12 8 -15 -9 -9 -48 4
-48 16 0 12 21 11 40 -1z m264 -53 c0 -49 2 -57 18 -57 10 0 18 -7 18 -15 0
-20 -16 -19 -38 3 -10 10 -26 21 -35 25 -21 8 -22 50 -2 71 8 8 15 20 15 26 0
6 6 10 13 7 8 -2 12 -23 11 -60z m-257 -14 c6 -16 -47 -26 -63 -12 -19 15 -18
27 4 31 22 5 55 -6 59 -19z m413 -22 c0 -32 -26 -46 -55 -31 -32 17 -31 24 3
37 41 16 52 15 52 -6z m-656 -17 c9 -8 16 -21 16 -29 0 -7 3 -20 6 -28 6 -18
-37 -29 -52 -13 -16 18 -22 52 -12 70 11 20 22 20 42 0z m214 -31 c-23 -25
-38 -22 -38 8 0 15 6 19 30 17 l30 -2 -22 -23z m64 -6 c3 -14 -3 -33 -13 -46
-15 -18 -22 -20 -39 -11 -24 13 -27 30 -5 30 9 0 20 11 25 25 12 31 26 32 32
2z m-209 -7 c5 -21 -7 -35 -22 -26 -10 7 -3 46 9 46 4 0 10 -9 13 -20z m59
-27 c10 -9 18 -29 18 -45 0 -23 -4 -28 -24 -28 -14 0 -32 10 -40 22 -20 28
-20 38 -1 38 8 0 15 7 15 15 0 19 9 19 32 -2z m289 7 c38 -11 57 -42 35 -58
-28 -23 -104 -24 -91 -2 3 5 -4 11 -15 15 -23 7 -26 25 -8 43 15 15 32 15 79
2z m130 0 c19 0 8 -48 -21 -86 -16 -21 -30 -46 -30 -55 0 -8 -6 -23 -13 -33
-13 -17 -14 -17 -30 8 -17 25 -16 28 7 73 14 27 30 61 36 77 7 19 15 26 26 22
9 -3 20 -6 25 -6z m111 -26 c9 -35 -5 -53 -29 -38 -28 18 -38 41 -24 57 18 23
44 14 53 -19z m-669 -10 c94 -48 89 -99 -6 -59 -33 14 -47 31 -47 61 0 18 14
18 53 -2z m262 -74 c12 -20 14 -50 2 -51 -51 -4 -64 -2 -80 14 -22 22 -19 27
25 37 46 11 46 11 53 0z m151 -11 c10 -18 -17 -49 -43 -49 -14 0 -23 3 -20 6
3 4 0 16 -8 28 -8 11 -15 23 -15 26 0 9 80 -1 86 -11z m250 6 c11 -28 -5 -64
-31 -71 -14 -3 -25 -11 -25 -17 0 -6 -11 0 -25 13 -22 21 -23 25 -10 51 20 37
80 53 91 24z m-502 -39 c6 -25 -15 -88 -29 -87 -5 1 -10 -16 -12 -36 -2 -21
-6 -44 -8 -52 -3 -7 6 -22 20 -33 19 -15 26 -30 26 -56 0 -21 0 -61 0 -90 0
-44 3 -52 16 -48 18 7 79 -20 87 -39 8 -23 -30 -48 -61 -41 -15 4 -33 7 -40 8
-7 1 -12 4 -11 7 0 3 -3 15 -7 27 -5 17 -14 21 -43 20 -37 -1 -37 -1 -34 37 3
34 1 37 -22 37 -25 0 -56 23 -56 42 0 6 10 8 23 5 18 -5 16 -1 -12 22 -29 24
-31 29 -17 34 30 12 42 8 70 -19 18 -19 26 -37 26 -63 l1 -36 19 25 c11 14 27
33 37 43 16 16 15 17 -5 17 -23 0 -59 61 -47 80 3 6 1 9 -7 8 -27 -6 -21 49 9
76 26 25 27 27 15 71 -17 63 -16 65 22 65 27 0 35 -5 40 -24z m-107 -28 c24
-22 31 -48 13 -48 -5 0 -10 5 -10 11 0 7 -11 8 -30 4 -57 -12 -95 20 -52 44
27 16 54 13 79 -11z m282 7 c-3 -26 3 -31 34 -27 40 5 82 -33 89 -78 4 -26 1
-30 -18 -30 -12 0 -38 7 -58 15 -20 9 -41 13 -46 10 -12 -7 -33 42 -24 56 3 5
2 9 -3 8 -23 -4 -41 3 -68 27 -25 23 -27 26 -9 22 12 -3 28 -2 35 3 19 12 69
7 68 -6z m225 -61 c7 -18 0 -34 -16 -34 -21 0 -48 33 -48 57 0 23 1 23 29 9
16 -9 31 -23 35 -32z m-315 5 c26 -24 26 -24 -12 -33 -23 -5 -29 -3 -36 16
-16 42 11 52 48 17z m381 1 c0 -5 -4 -10 -10 -10 -5 0 -10 5 -10 10 0 6 5 10
10 10 6 0 10 -4 10 -10z m-631 -56 c25 -32 28 -59 5 -50 -9 3 -20 6 -24 6 -14
0 -32 40 -26 56 8 21 22 17 45 -12z m561 -24 c0 -41 -19 -77 -44 -85 -17 -5
-18 -7 -5 -13 12 -6 13 -11 4 -29 -9 -17 -14 -20 -23 -11 -7 7 -12 18 -12 25
0 7 -1 13 -2 14 -2 0 -25 3 -53 6 -55 5 -92 31 -82 57 5 13 16 15 56 10 41 -5
53 -2 69 14 50 50 92 56 92 12z m-330 15 c0 -8 -34 -45 -42 -45 -12 0 -9 25 4
38 12 12 38 17 38 7z m444 -73 c6 -40 -4 -52 -44 -51 l-25 1 25 8 c25 8 24 8
-5 9 -50 2 -61 15 -42 44 16 24 48 37 73 29 6 -2 14 -20 18 -40z m-406 6 c-2
-13 -6 -22 -10 -20 -5 1 -20 2 -35 2 -25 0 -26 0 -8 20 25 28 57 27 53 -2z
m27 -94 c0 -13 6 -18 20 -15 11 2 38 4 60 5 39 1 40 0 43 -37 4 -41 -17 -59
-43 -37 -8 7 -15 8 -15 3 0 -13 22 -33 37 -33 8 0 28 -10 46 -22 18 -13 34
-24 37 -26 3 -2 -4 -10 -14 -17 -13 -10 -24 -11 -37 -5 -10 6 -30 10 -46 10
-39 1 -69 29 -84 78 -10 35 -15 41 -33 36 -29 -7 -76 12 -76 31 0 8 12 20 28
26 15 6 34 15 42 19 22 12 35 6 35 -16z m340 -10 c14 -6 14 -8 -1 -25 -9 -11
-21 -19 -26 -19 -10 0 -11 34 -1 43 8 8 8 8 28 1z m-65 -40 c0 -13 -4 -24 -9
-24 -13 0 -24 37 -16 50 10 16 25 1 25 -26z m-557 -14 c12 -10 -30 -43 -48
-37 -8 4 -15 18 -15 32 0 23 3 25 28 19 15 -4 30 -10 35 -14z m457 0 c0 -11
-4 -20 -10 -20 -5 0 -10 2 -10 4 0 2 -3 11 -6 20 -4 11 -1 16 10 16 9 0 16 -8
16 -20z m65 -34 c13 -19 14 -29 5 -46 -11 -20 -12 -20 -40 -3 -34 20 -37 29
-13 55 21 24 29 23 48 -6z m110 -12 c14 -6 14 -8 -1 -25 -20 -22 -54 -25 -54
-6 0 14 19 37 31 37 4 0 15 -3 24 -6z m-537 -52 c2 -7 -3 -12 -12 -12 -9 0
-16 7 -16 16 0 17 22 14 28 -4z m-85 -59 c10 -18 20 -45 21 -60 3 -25 7 -28
37 -25 19 2 35 5 36 6 1 1 -3 21 -8 45 -13 59 1 73 35 35 29 -33 32 -51 12
-73 -7 -9 -17 -26 -20 -38 -9 -29 14 -31 39 -3 10 11 26 20 35 20 24 0 53 -35
56 -68 2 -20 1 -23 -6 -12 -7 10 -10 11 -10 3 0 -17 -39 -16 -74 2 -36 19 -35
19 -29 -5 4 -17 0 -20 -24 -20 -33 0 -54 16 -46 36 5 14 -18 22 -82 26 l-40 3
-2 69 c-4 100 30 128 70 59z m627 27 c11 -7 7 -10 -18 -10 -20 0 -31 4 -27 10
8 13 26 13 45 0z m-373 -32 c-4 -26 -42 -58 -69 -58 -31 0 -18 41 21 67 37 25
52 22 48 -9z m263 1 c9 -16 7 -27 -11 -57 -13 -22 -21 -52 -20 -74 1 -32 -3
-39 -25 -44 -43 -11 -55 22 -19 56 19 18 22 29 18 72 -4 36 -1 53 9 59 21 14
37 10 48 -12z m-107 -11 c27 -14 20 -36 -13 -43 -25 -5 -30 -11 -25 -26 9 -28
-6 -23 -43 15 l-34 34 23 21 c22 21 50 21 92 -1z m225 -17 c3 -10 -2 -11 -19
-6 -39 12 -48 27 -15 23 16 -2 31 -9 34 -17z m-21 -46 c35 -18 48 -57 30 -95
-11 -22 -17 -24 -67 -21 -30 1 -56 4 -57 5 -2 1 16 12 40 24 32 17 37 22 20
22 -13 0 -23 6 -23 15 0 12 20 65 25 65 1 0 16 -7 32 -15z m-295 -30 c11 -14
30 -25 43 -25 31 0 37 -12 20 -37 -9 -13 -22 -19 -34 -16 -30 8 -85 69 -78 87
9 23 26 20 49 -9z m-17 -64 c3 -5 -4 -13 -16 -16 -23 -8 -34 -1 -24 14 8 13
32 14 40 2z"/>
<path d="M6981 7795 c2 -9 15 -25 29 -34 24 -15 25 -15 10 4 -8 11 -21 26 -29
34 -11 13 -13 12 -10 -4z"/>
<path d="M6951 9796 c-1 -29 2 -37 10 -29 8 8 8 19 1 40 -10 28 -10 28 -11
-11z"/>
<path d="M6618 8237 c-41 -46 -46 -75 -22 -112 9 -14 13 -25 10 -25 -4 0 3
-10 14 -22 12 -13 16 -24 11 -26 -7 -2 -6 -8 2 -17 14 -15 37 -2 37 21 0 7 11
30 25 50 14 20 25 45 25 56 0 22 -25 74 -49 99 -16 17 -18 16 -53 -24z"/>
<path d="M5936 8254 c-9 -8 -16 -16 -16 -17 -1 -1 -3 -27 -6 -57 -4 -44 -1
-61 15 -87 12 -18 27 -33 35 -33 15 0 58 51 69 82 3 10 -5 42 -19 73 -27 58
-48 69 -78 39z"/>
<path d="M6188 8251 c-26 -10 -58 -57 -58 -86 0 -38 37 -113 57 -117 19 -4 83
73 83 100 0 21 -41 100 -54 105 -6 2 -19 1 -28 -2z"/>
<path d="M6382 8211 c-17 -27 -27 -53 -23 -57 4 -5 15 -30 25 -55 11 -31 24
-49 38 -53 12 -3 24 -3 27 -1 2 3 -1 5 -8 5 -6 0 4 16 24 35 41 42 45 76 15
135 -29 58 -59 55 -98 -9z"/>
<path d="M6070 8036 c-41 -31 -70 -78 -64 -104 20 -96 76 -105 120 -20 15 29
10 51 -23 105 -15 25 -21 29 -33 19z"/>
<path d="M6267 8006 c-32 -29 -37 -38 -33 -67 11 -86 54 -119 94 -71 42 50 46
71 21 124 -12 27 -27 48 -33 48 -6 -1 -28 -16 -49 -34z"/>
<path d="M6506 8014 c-9 -13 -23 -24 -30 -24 -18 0 -26 -22 -18 -52 10 -40 44
-89 59 -86 8 2 29 22 46 45 33 46 33 39 -8 115 -15 28 -32 29 -49 2z"/>
<path d="M5928 7803 c-28 -37 -37 -86 -17 -98 5 -4 14 -18 19 -31 10 -25 40
-33 40 -11 0 7 13 23 30 35 17 13 29 30 27 40 -6 31 -47 102 -60 102 -6 -1
-24 -17 -39 -37z"/>
<path d="M6968 6895 c-2 -3 -3 -136 -1 -297 3 -184 0 -298 -6 -307 -24 -36
-214 -22 -293 22 l-37 20 -53 -48 c-72 -65 -194 -135 -235 -135 -42 0 -109 58
-135 118 -13 28 -23 40 -31 35 -7 -5 -45 -30 -84 -56 -105 -69 -270 -149 -319
-155 -58 -6 -93 17 -195 129 -45 49 -87 89 -93 89 -14 0 -516 -514 -516 -528
0 -14 49 -52 66 -52 13 0 187 153 312 274 44 43 75 67 80 60 46 -69 88 -105
140 -120 99 -29 149 -17 323 74 l153 80 51 -54 c47 -50 54 -54 96 -54 25 0 67
7 92 16 26 9 58 13 70 10 12 -4 48 -38 81 -77 71 -85 102 -103 182 -103 52 -1
66 3 98 28 48 36 72 91 81 182 4 39 10 77 15 84 5 8 38 17 80 21 102 11 157
41 196 106 40 67 53 132 65 323 5 85 14 173 19 195 5 22 10 59 10 83 l0 42
-103 0 c-57 0 -106 -2 -109 -5z m-284 -733 c18 -50 18 -54 2 -97 -28 -73 -71
-72 -131 1 l-38 46 54 54 c68 69 87 68 113 -4z"/>
<path d="M7280 6802 c-23 -18 -23 -21 -21 -256 2 -276 -3 -305 -75 -385 -24
-27 -44 -52 -44 -55 0 -14 39 -4 97 23 105 50 146 137 163 346 10 132 24 215
46 277 24 68 23 68 -65 68 -61 0 -84 -4 -101 -18z"/>
<path d="M7980 6754 c-25 -20 -49 -39 -54 -44 -9 -9 56 -103 90 -130 13 -11
44 7 108 61 10 9 -74 148 -89 148 -5 0 -30 -16 -55 -35z"/>
<path d="M10792 6730 c-34 -28 -62 -54 -62 -58 0 -4 27 -36 59 -72 l58 -65 57
48 c31 27 56 56 56 66 0 23 -77 131 -93 131 -7 0 -40 -23 -75 -50z"/>
<path d="M8193 6739 c-24 -17 -43 -35 -43 -40 0 -15 48 -95 65 -109 11 -9 23
-4 59 22 25 18 45 39 46 45 0 15 -69 113 -78 113 -4 -1 -26 -14 -49 -31z"/>
<path d="M9177 6709 c-80 -53 -127 -107 -127 -147 0 -12 38 -99 85 -191 47
-93 85 -180 85 -193 0 -33 -34 -85 -69 -103 -95 -48 -227 25 -338 187 -27 40
-60 99 -73 131 -13 31 -26 57 -29 57 -4 0 -29 -15 -56 -33 -59 -38 -108 -118
-108 -176 0 -74 102 -228 188 -285 119 -80 233 -111 309 -86 41 13 172 104
227 156 l36 35 87 -83 c176 -167 206 -169 535 -19 l133 61 76 -71 c42 -39 93
-79 115 -90 189 -97 671 77 763 276 42 89 24 264 -34 328 -50 57 -205 77 -294
38 -117 -51 -188 -151 -196 -277 -6 -82 10 -123 70 -189 57 -63 52 -72 -36
-61 -76 9 -121 31 -173 84 -55 56 -146 168 -162 200 -16 31 -32 28 -72 -14
-80 -83 -290 -194 -367 -194 -44 0 -143 55 -181 101 -47 57 -158 240 -198 327
-19 41 -49 119 -68 175 -18 56 -37 103 -41 104 -5 2 -44 -20 -87 -48z m1629
-374 c22 -33 22 -118 1 -167 -9 -21 -20 -38 -24 -38 -13 0 -63 96 -63 119 0
34 42 111 61 111 5 0 16 -11 25 -25z"/>
<path d="M6083 6549 c-29 -22 -53 -43 -53 -47 0 -13 91 -117 105 -120 18 -4
115 66 115 83 0 21 -82 125 -99 124 -9 0 -40 -18 -68 -40z"/>
<path d="M10066 6527 l-59 -53 49 -67 c48 -66 48 -66 74 -50 65 41 90 65 90
87 0 20 -77 135 -90 135 -3 0 -31 -23 -64 -52z"/>
<path d="M5470 6536 c-77 -56 -77 -59 -33 -110 21 -25 45 -45 54 -46 21 0 99
68 99 86 0 15 -60 103 -70 103 -3 0 -25 -14 -50 -33z"/>
<path d="M8142 6539 c-13 -5 -64 -37 -113 -70 -98 -67 -174 -148 -189 -200
-12 -42 4 -148 30 -198 23 -46 100 -118 135 -127 37 -9 103 1 160 26 62 27 78
15 50 -37 -26 -48 -98 -86 -174 -91 -82 -6 -105 7 -121 65 -23 84 -36 103 -73
103 -17 0 -54 -6 -82 -14 l-50 -13 3 -69 c4 -80 41 -196 73 -230 32 -34 82
-47 163 -42 78 5 134 29 241 101 151 102 202 188 212 353 7 105 -9 166 -82
321 -37 80 -48 94 -84 112 -44 23 -63 25 -99 10z m-6 -225 c43 -21 64 -59 64
-118 0 -53 -19 -76 -61 -76 -44 0 -65 15 -94 64 -24 42 -25 46 -12 79 12 28
50 67 65 67 2 0 19 -7 38 -16z"/>
<path d="M4527 6422 c-31 -32 -57 -62 -57 -68 0 -5 25 -34 56 -64 84 -83 84
-81 21 -153 -68 -79 -77 -95 -77 -151 0 -38 6 -53 43 -97 23 -28 62 -66 85
-83 38 -27 54 -31 121 -34 l78 -4 81 79 c88 86 121 143 122 210 0 62 -15 86
-97 154 -40 33 -73 66 -73 72 0 7 18 45 41 86 24 44 36 78 31 83 -19 19 -63
-5 -93 -49 -19 -27 -36 -42 -45 -39 -7 3 -47 30 -87 61 -41 30 -78 55 -83 55
-5 0 -35 -26 -67 -58z m245 -311 c52 -33 77 -85 59 -120 -14 -25 -45 -35 -70
-22 -28 15 -71 70 -71 90 0 24 20 81 29 81 4 0 28 -13 53 -29z"/>
<path d="M2830 4610 c0 -376 2 -424 17 -448 25 -40 84 -102 113 -117 77 -40
571 -81 684 -56 24 5 34 17 57 71 34 79 38 147 10 181 -19 23 -24 24 -213 29
l-195 6 -66 32 c-85 42 -123 80 -132 133 -4 22 -4 43 -1 46 3 3 90 10 193 14
104 5 217 12 253 17 65 7 65 7 74 45 7 27 6 41 -2 49 -12 12 -306 36 -454 37
l-68 1 -1 68 c0 37 -1 97 -2 135 l-3 67 201 1 c110 1 243 4 295 8 l95 6 3 39
c2 24 -2 42 -10 47 -7 5 -201 9 -430 9 l-418 0 0 -420z"/>
<path d="M4706 5008 c-3 -13 -7 -79 -10 -148 -3 -69 -14 -170 -25 -225 -19
-95 -100 -465 -121 -550 -14 -56 -14 -55 33 -55 l42 0 42 168 c23 92 45 184
49 205 6 38 18 54 28 39 3 -5 21 -85 41 -178 20 -93 41 -182 47 -198 16 -40
85 -70 143 -61 82 12 107 49 220 320 37 88 70 164 74 168 4 4 37 -68 73 -160
36 -92 91 -234 123 -315 33 -85 67 -156 81 -169 20 -19 40 -23 164 -32 77 -6
143 -8 146 -4 3 3 -10 32 -29 64 -42 69 -117 244 -158 365 -48 142 -99 422
-99 541 0 99 -17 152 -61 191 -38 35 -41 36 -124 36 -60 0 -87 -4 -90 -12 -2
-7 -9 -56 -14 -108 -6 -52 -20 -131 -31 -175 -20 -77 -130 -314 -169 -364
l-19 -25 -11 40 c-18 62 -39 225 -51 404 -6 91 -13 175 -16 187 -3 15 -21 31
-54 48 -41 21 -63 25 -134 25 -81 0 -86 -1 -90 -22z"/>
<path d="M8395 4997 c-4 -8 7 -61 24 -118 55 -194 60 -236 70 -607 5 -165 11
-304 15 -310 6 -9 212 61 230 79 5 5 9 71 7 146 -2 132 6 205 31 266 23 58 53
10 103 -163 61 -215 150 -359 231 -376 29 -6 34 -1 117 104 l87 111 -53 53
c-65 65 -143 215 -188 358 -26 87 -35 103 -57 111 -34 13 -109 4 -174 -22 -42
-16 -54 -18 -64 -7 -7 7 -35 89 -62 183 l-48 169 -35 7 c-19 4 -61 10 -93 13
-33 4 -76 9 -97 12 -29 5 -40 3 -44 -9z"/>
<path d="M9615 4991 c-47 -7 -43 22 -28 -256 7 -119 7 -259 0 -415 -16 -375
-16 -355 13 -354 14 1 75 19 135 40 61 22 111 39 112 39 2 0 20 173 29 277 6
76 3 74 105 83 75 6 78 3 79 -80 1 -102 67 -311 111 -351 24 -21 67 -15 144
21 76 36 84 56 57 137 -24 73 -36 122 -63 268 -29 163 -24 339 16 527 6 28 4
33 -23 47 -20 10 -57 16 -102 16 l-71 0 -19 -45 c-34 -80 -51 -166 -58 -290
l-7 -120 -86 -2 -87 -1 -6 166 c-8 231 -15 273 -46 289 -26 13 -133 15 -205 4z"/>
<path d="M11103 4985 c-29 -12 -32 -18 -35 -61 -3 -53 -10 -57 -114 -84 -47
-11 -61 -39 -44 -84 8 -22 16 -26 52 -26 70 0 69 3 61 -180 -6 -159 -13 -177
-27 -75 -4 28 -22 76 -38 108 -37 69 -141 185 -173 193 -39 10 -119 -42 -229
-151 -132 -130 -158 -173 -164 -276 -4 -70 -2 -82 21 -121 14 -24 55 -76 91
-115 72 -78 108 -92 179 -72 39 10 150 82 201 128 42 38 105 138 112 180 6 30
8 32 15 16 4 -11 8 -35 8 -54 2 -82 70 -157 292 -321 109 -81 153 -103 189
-95 75 17 106 81 75 160 -9 25 -23 48 -30 52 -47 28 -260 223 -280 257 -33 56
-57 176 -53 267 l3 74 152 3 151 3 7 63 c10 88 -1 106 -63 105 -26 0 -83 -4
-127 -8 -43 -5 -85 -7 -92 -4 -8 3 -13 22 -13 48 0 66 -60 100 -127 70z m-430
-470 c26 -20 51 -43 56 -53 5 -9 12 -59 16 -110 6 -78 5 -92 -7 -92 -17 0 -56
27 -105 74 -32 29 -33 32 -33 116 0 116 3 118 73 65z"/>
<path d="M6647 4948 c-2 -7 -1 -33 2 -58 4 -25 2 -64 -3 -87 -12 -54 5 -82 77
-123 50 -30 56 -31 142 -27 63 3 105 11 140 26 57 26 90 21 99 -13 7 -27 -8
-76 -27 -88 -7 -4 -52 -8 -100 -8 -95 0 -91 3 -101 -67 l-6 -43 54 0 c30 0 57
-4 60 -8 3 -5 -33 -103 -80 -218 -123 -302 -127 -314 -122 -319 3 -3 29 0 58
6 32 7 107 9 189 7 127 -5 154 -10 406 -73 149 -37 301 -70 338 -73 l68 -5 63
64 c77 80 106 137 106 211 0 66 -17 89 -44 59 -27 -30 -133 -73 -200 -81 -112
-14 -220 14 -442 116 -111 51 -174 74 -200 74 -67 0 -68 5 -16 127 l47 112 51
1 c64 0 92 21 101 73 l6 37 -53 0 c-52 0 -52 0 -45 27 3 15 38 96 77 181 38
84 67 156 64 159 -2 3 -27 0 -53 -6 -96 -22 -244 -41 -317 -41 -86 0 -199 21
-264 50 -52 23 -68 25 -75 8z"/>
<path d="M5763 4933 c-15 -5 -18 -120 -4 -141 5 -9 31 -12 90 -10 l83 3 4 64
c6 84 -1 91 -90 90 -39 0 -77 -3 -83 -6z"/>
<path d="M12203 4883 c-16 -6 -19 -807 -3 -848 l10 -27 258 2 c141 2 267 5
280 7 21 5 22 10 22 89 l0 84 -127 0 c-151 1 -205 19 -236 80 -24 46 -16 171
24 372 36 184 38 226 7 232 -36 7 -222 14 -235 9z"/>
<path d="M7905 4820 c-110 -56 -266 -162 -308 -209 -82 -91 -107 -191 -68
-276 24 -52 42 -67 136 -115 129 -66 165 -57 299 70 41 40 80 69 85 66 5 -4
29 -43 53 -88 48 -92 123 -178 155 -178 11 0 30 8 40 18 23 20 143 169 143
177 0 3 -31 37 -69 74 -79 78 -112 137 -167 297 -32 90 -45 116 -84 156 -42
44 -50 48 -93 48 -34 0 -66 -10 -122 -40z m-6 -180 c50 -14 79 -46 87 -95 8
-54 0 -77 -38 -121 -26 -30 -36 -34 -77 -34 -64 0 -130 35 -153 81 -25 49 -16
80 37 135 45 47 74 54 144 34z"/>
<path d="M3820 4831 c-6 -13 -10 -163 -10 -420 l0 -401 268 0 c147 0 272 4
278 8 32 21 46 106 22 130 -8 8 -49 12 -118 12 -131 0 -198 18 -236 62 l-27
33 7 150 c8 158 21 239 61 367 l23 78 -128 0 c-118 0 -130 -2 -140 -19z"/>
<path d="M11728 4783 c-8 -10 -21 -29 -30 -43 -8 -14 -56 -68 -105 -121 -49
-54 -100 -119 -113 -145 -47 -98 -23 -221 52 -277 36 -27 268 -161 348 -202
103 -52 187 -24 227 77 13 31 24 71 25 89 l3 33 -75 21 c-41 12 -94 32 -117
45 l-42 23 31 36 c42 48 108 192 108 237 0 72 -73 170 -161 214 -67 35 -128
39 -151 13z m-20 -197 c37 -19 78 -65 92 -100 20 -54 -15 -166 -51 -166 -18 0
-82 54 -111 94 -39 55 -35 140 9 174 21 15 28 15 61 -2z"/>
<path d="M6089 4690 c-66 -35 -64 -23 -64 -348 l0 -295 26 -19 c14 -11 44 -22
66 -25 34 -4 45 -1 75 26 42 36 47 59 57 250 6 113 9 125 30 142 68 56 112 1
150 -188 28 -138 93 -293 122 -293 31 0 199 106 199 126 0 7 -11 39 -25 70
-14 31 -43 125 -65 210 -49 190 -74 250 -111 269 -43 23 -64 18 -121 -25 -63
-48 -102 -67 -143 -72 l-30 -3 -5 78 c-4 67 -8 82 -29 98 -30 24 -85 24 -132
-1z"/>
<path d="M5779 4663 l-26 -4 -7 -182 c-3 -100 -11 -213 -16 -252 -17 -114 -17
-115 95 -115 l95 0 0 270 c0 208 -3 272 -12 275 -24 7 -103 12 -129 8z"/>
</g>
</svg>
